<mxfile host="app.diagrams.net" modified="2022-06-17T15:54:04.695Z" agent="5.0 (Windows NT 10.0; Win64; x64) AppleWebKit/537.36 (KHTML, like Gecko) Chrome/102.0.0.0 Safari/537.36" etag="IpmJr4ZYCBcr54NyKdiY" version="20.0.1" type="github">
  <diagram id="OKJBBSTHWLwM666B0Pqj" name="Page-1">
    <mxGraphModel dx="1673" dy="2103" grid="1" gridSize="10" guides="1" tooltips="1" connect="1" arrows="1" fold="1" page="1" pageScale="1" pageWidth="827" pageHeight="1169" math="0" shadow="0">
      <root>
        <mxCell id="0" />
        <mxCell id="1" parent="0" />
        <mxCell id="tHKBDyenzgohp8NIYTpj-111" value="" style="rounded=0;whiteSpace=wrap;html=1;fontSize=25;strokeWidth=1;fillColor=#FFFFFF;" vertex="1" parent="1">
          <mxGeometry x="831.5" y="145" width="120" height="60" as="geometry" />
        </mxCell>
        <mxCell id="zlBBdxe0bt9fsabpmSAy-1" value="" style="rounded=0;whiteSpace=wrap;html=1;" parent="1" vertex="1">
          <mxGeometry x="120" y="30" width="250" height="470" as="geometry" />
        </mxCell>
        <mxCell id="zlBBdxe0bt9fsabpmSAy-2" value="ARDUINO&lt;br&gt;MEGA 2560" style="text;html=1;strokeColor=none;fillColor=none;align=center;verticalAlign=middle;whiteSpace=wrap;rounded=0;" parent="1" vertex="1">
          <mxGeometry x="207.5" y="120" width="75" height="30" as="geometry" />
        </mxCell>
        <mxCell id="zlBBdxe0bt9fsabpmSAy-3" value="SCL1" style="text;html=1;strokeColor=none;fillColor=none;align=right;verticalAlign=middle;whiteSpace=wrap;rounded=0;rotation=0;fontSize=8;" parent="1" vertex="1">
          <mxGeometry x="320" y="60" width="50" height="10" as="geometry" />
        </mxCell>
        <mxCell id="zlBBdxe0bt9fsabpmSAy-4" value="SDA1" style="text;html=1;strokeColor=none;fillColor=none;align=right;verticalAlign=middle;whiteSpace=wrap;rounded=0;rotation=0;fontSize=8;" parent="1" vertex="1">
          <mxGeometry x="320" y="70" width="50" height="10" as="geometry" />
        </mxCell>
        <mxCell id="zlBBdxe0bt9fsabpmSAy-5" value="AREF" style="text;html=1;strokeColor=none;fillColor=none;align=right;verticalAlign=middle;whiteSpace=wrap;rounded=0;rotation=0;fontSize=8;" parent="1" vertex="1">
          <mxGeometry x="320" y="80" width="50" height="10" as="geometry" />
        </mxCell>
        <mxCell id="zlBBdxe0bt9fsabpmSAy-20" value="7" style="text;html=1;strokeColor=none;fillColor=none;align=right;verticalAlign=middle;whiteSpace=wrap;rounded=0;rotation=0;fontSize=8;" parent="1" vertex="1">
          <mxGeometry x="320" y="170" width="50" height="10" as="geometry" />
        </mxCell>
        <mxCell id="zlBBdxe0bt9fsabpmSAy-21" value="6" style="text;html=1;strokeColor=none;fillColor=none;align=right;verticalAlign=middle;whiteSpace=wrap;rounded=0;rotation=0;fontSize=8;" parent="1" vertex="1">
          <mxGeometry x="320" y="180" width="50" height="10" as="geometry" />
        </mxCell>
        <mxCell id="zlBBdxe0bt9fsabpmSAy-22" value="5" style="text;html=1;strokeColor=none;fillColor=none;align=right;verticalAlign=middle;whiteSpace=wrap;rounded=0;rotation=0;fontSize=8;" parent="1" vertex="1">
          <mxGeometry x="320" y="190" width="50" height="10" as="geometry" />
        </mxCell>
        <mxCell id="zlBBdxe0bt9fsabpmSAy-23" value="4" style="text;html=1;strokeColor=none;fillColor=none;align=right;verticalAlign=middle;whiteSpace=wrap;rounded=0;rotation=0;fontSize=8;" parent="1" vertex="1">
          <mxGeometry x="320" y="200" width="50" height="10" as="geometry" />
        </mxCell>
        <mxCell id="zlBBdxe0bt9fsabpmSAy-24" value="3" style="text;html=1;strokeColor=none;fillColor=none;align=right;verticalAlign=middle;whiteSpace=wrap;rounded=0;rotation=0;fontSize=8;" parent="1" vertex="1">
          <mxGeometry x="320" y="210" width="50" height="10" as="geometry" />
        </mxCell>
        <mxCell id="zlBBdxe0bt9fsabpmSAy-25" value="2" style="text;html=1;strokeColor=none;fillColor=none;align=right;verticalAlign=middle;whiteSpace=wrap;rounded=0;rotation=0;fontSize=8;" parent="1" vertex="1">
          <mxGeometry x="320" y="220" width="50" height="10" as="geometry" />
        </mxCell>
        <mxCell id="zlBBdxe0bt9fsabpmSAy-26" value="&amp;nbsp;(TX) 1" style="text;html=1;strokeColor=none;fillColor=none;align=right;verticalAlign=middle;whiteSpace=wrap;rounded=0;rotation=0;fontSize=8;" parent="1" vertex="1">
          <mxGeometry x="320" y="230" width="50" height="10" as="geometry" />
        </mxCell>
        <mxCell id="zlBBdxe0bt9fsabpmSAy-27" value="(RX) 0" style="text;html=1;strokeColor=none;fillColor=none;align=right;verticalAlign=middle;whiteSpace=wrap;rounded=0;rotation=0;fontSize=8;" parent="1" vertex="1">
          <mxGeometry x="320" y="240" width="50" height="10" as="geometry" />
        </mxCell>
        <mxCell id="zlBBdxe0bt9fsabpmSAy-28" value="13" style="text;html=1;strokeColor=none;fillColor=none;align=right;verticalAlign=middle;whiteSpace=wrap;rounded=0;rotation=0;fontSize=8;" parent="1" vertex="1">
          <mxGeometry x="320" y="100" width="50" height="10" as="geometry" />
        </mxCell>
        <mxCell id="zlBBdxe0bt9fsabpmSAy-29" value="12" style="text;html=1;strokeColor=none;fillColor=none;align=right;verticalAlign=middle;whiteSpace=wrap;rounded=0;rotation=0;fontSize=8;" parent="1" vertex="1">
          <mxGeometry x="320" y="110" width="50" height="10" as="geometry" />
        </mxCell>
        <mxCell id="zlBBdxe0bt9fsabpmSAy-30" value="11" style="text;html=1;strokeColor=none;fillColor=none;align=right;verticalAlign=middle;whiteSpace=wrap;rounded=0;rotation=0;fontSize=8;" parent="1" vertex="1">
          <mxGeometry x="320" y="120" width="50" height="10" as="geometry" />
        </mxCell>
        <mxCell id="zlBBdxe0bt9fsabpmSAy-31" value="10" style="text;html=1;strokeColor=none;fillColor=none;align=right;verticalAlign=middle;whiteSpace=wrap;rounded=0;rotation=0;fontSize=8;" parent="1" vertex="1">
          <mxGeometry x="320" y="130" width="50" height="10" as="geometry" />
        </mxCell>
        <mxCell id="zlBBdxe0bt9fsabpmSAy-32" value="9" style="text;html=1;strokeColor=none;fillColor=none;align=right;verticalAlign=middle;whiteSpace=wrap;rounded=0;rotation=0;fontSize=8;" parent="1" vertex="1">
          <mxGeometry x="320" y="140" width="50" height="10" as="geometry" />
        </mxCell>
        <mxCell id="zlBBdxe0bt9fsabpmSAy-33" value="8" style="text;html=1;strokeColor=none;fillColor=none;align=right;verticalAlign=middle;whiteSpace=wrap;rounded=0;rotation=0;fontSize=8;" parent="1" vertex="1">
          <mxGeometry x="320" y="150" width="50" height="10" as="geometry" />
        </mxCell>
        <mxCell id="zlBBdxe0bt9fsabpmSAy-34" value="&amp;nbsp;(TX3) 14" style="text;html=1;strokeColor=none;fillColor=none;align=right;verticalAlign=middle;whiteSpace=wrap;rounded=0;rotation=0;fontSize=8;" parent="1" vertex="1">
          <mxGeometry x="320" y="260" width="50" height="10" as="geometry" />
        </mxCell>
        <mxCell id="zlBBdxe0bt9fsabpmSAy-35" value="(RX3) 15" style="text;html=1;strokeColor=none;fillColor=none;align=right;verticalAlign=middle;whiteSpace=wrap;rounded=0;rotation=0;fontSize=8;" parent="1" vertex="1">
          <mxGeometry x="320" y="270" width="50" height="10" as="geometry" />
        </mxCell>
        <mxCell id="zlBBdxe0bt9fsabpmSAy-36" value="&amp;nbsp;(TX2) 16" style="text;html=1;strokeColor=none;fillColor=none;align=right;verticalAlign=middle;whiteSpace=wrap;rounded=0;rotation=0;fontSize=8;" parent="1" vertex="1">
          <mxGeometry x="320" y="280" width="50" height="10" as="geometry" />
        </mxCell>
        <mxCell id="zlBBdxe0bt9fsabpmSAy-37" value="(RX2) 17" style="text;html=1;strokeColor=none;fillColor=none;align=right;verticalAlign=middle;whiteSpace=wrap;rounded=0;rotation=0;fontSize=8;" parent="1" vertex="1">
          <mxGeometry x="320" y="290" width="50" height="10" as="geometry" />
        </mxCell>
        <mxCell id="zlBBdxe0bt9fsabpmSAy-38" value="(TX1) 18" style="text;html=1;strokeColor=none;fillColor=none;align=right;verticalAlign=middle;whiteSpace=wrap;rounded=0;rotation=0;fontSize=8;" parent="1" vertex="1">
          <mxGeometry x="320" y="300" width="50" height="10" as="geometry" />
        </mxCell>
        <mxCell id="zlBBdxe0bt9fsabpmSAy-39" value="(RX1) 19" style="text;html=1;strokeColor=none;fillColor=none;align=right;verticalAlign=middle;whiteSpace=wrap;rounded=0;rotation=0;fontSize=8;" parent="1" vertex="1">
          <mxGeometry x="320" y="310" width="50" height="10" as="geometry" />
        </mxCell>
        <mxCell id="zlBBdxe0bt9fsabpmSAy-40" value="(SDA) 20" style="text;html=1;strokeColor=none;fillColor=none;align=right;verticalAlign=middle;whiteSpace=wrap;rounded=0;rotation=0;fontSize=8;" parent="1" vertex="1">
          <mxGeometry x="320" y="320" width="50" height="10" as="geometry" />
        </mxCell>
        <mxCell id="zlBBdxe0bt9fsabpmSAy-41" value="(SCL) 21" style="text;html=1;strokeColor=none;fillColor=none;align=right;verticalAlign=middle;whiteSpace=wrap;rounded=0;rotation=0;fontSize=8;" parent="1" vertex="1">
          <mxGeometry x="320" y="330" width="50" height="10" as="geometry" />
        </mxCell>
        <mxCell id="zlBBdxe0bt9fsabpmSAy-48" value="" style="endArrow=none;html=1;rounded=0;fontSize=8;entryX=1;entryY=0.5;entryDx=0;entryDy=0;" parent="1" target="zlBBdxe0bt9fsabpmSAy-3" edge="1">
          <mxGeometry width="50" height="50" relative="1" as="geometry">
            <mxPoint x="380" y="65" as="sourcePoint" />
            <mxPoint x="340" y="110" as="targetPoint" />
          </mxGeometry>
        </mxCell>
        <mxCell id="zlBBdxe0bt9fsabpmSAy-49" value="" style="endArrow=none;html=1;rounded=0;fontSize=8;entryX=1;entryY=0.5;entryDx=0;entryDy=0;" parent="1" edge="1">
          <mxGeometry width="50" height="50" relative="1" as="geometry">
            <mxPoint x="380" y="74.90000000000003" as="sourcePoint" />
            <mxPoint x="370" y="74.90000000000003" as="targetPoint" />
          </mxGeometry>
        </mxCell>
        <mxCell id="zlBBdxe0bt9fsabpmSAy-50" value="" style="endArrow=none;html=1;rounded=0;fontSize=8;entryX=1;entryY=0.5;entryDx=0;entryDy=0;" parent="1" target="zlBBdxe0bt9fsabpmSAy-5" edge="1">
          <mxGeometry width="50" height="50" relative="1" as="geometry">
            <mxPoint x="380" y="85" as="sourcePoint" />
            <mxPoint x="390" y="85.00000000000003" as="targetPoint" />
          </mxGeometry>
        </mxCell>
        <mxCell id="zlBBdxe0bt9fsabpmSAy-61" value="" style="endArrow=none;html=1;rounded=0;fontSize=8;entryX=1;entryY=0.5;entryDx=0;entryDy=0;" parent="1" edge="1">
          <mxGeometry width="50" height="50" relative="1" as="geometry">
            <mxPoint x="380" y="214.90000000000003" as="sourcePoint" />
            <mxPoint x="370" y="214.90000000000003" as="targetPoint" />
          </mxGeometry>
        </mxCell>
        <mxCell id="zlBBdxe0bt9fsabpmSAy-62" value="" style="endArrow=none;html=1;rounded=0;fontSize=8;entryX=1;entryY=0.5;entryDx=0;entryDy=0;" parent="1" edge="1">
          <mxGeometry width="50" height="50" relative="1" as="geometry">
            <mxPoint x="380" y="225" as="sourcePoint" />
            <mxPoint x="370" y="225" as="targetPoint" />
          </mxGeometry>
        </mxCell>
        <mxCell id="zlBBdxe0bt9fsabpmSAy-63" value="" style="endArrow=none;html=1;rounded=0;fontSize=8;entryX=1;entryY=0.5;entryDx=0;entryDy=0;" parent="1" edge="1">
          <mxGeometry width="50" height="50" relative="1" as="geometry">
            <mxPoint x="380" y="235" as="sourcePoint" />
            <mxPoint x="370" y="235" as="targetPoint" />
          </mxGeometry>
        </mxCell>
        <mxCell id="zlBBdxe0bt9fsabpmSAy-64" value="" style="endArrow=none;html=1;rounded=0;fontSize=8;entryX=1;entryY=0.5;entryDx=0;entryDy=0;" parent="1" edge="1">
          <mxGeometry width="50" height="50" relative="1" as="geometry">
            <mxPoint x="380" y="244.90000000000003" as="sourcePoint" />
            <mxPoint x="370" y="244.90000000000003" as="targetPoint" />
          </mxGeometry>
        </mxCell>
        <mxCell id="zlBBdxe0bt9fsabpmSAy-69" value="" style="endArrow=none;html=1;rounded=0;fontSize=8;entryX=1;entryY=0.5;entryDx=0;entryDy=0;" parent="1" edge="1">
          <mxGeometry width="50" height="50" relative="1" as="geometry">
            <mxPoint x="380" y="265" as="sourcePoint" />
            <mxPoint x="370" y="265" as="targetPoint" />
          </mxGeometry>
        </mxCell>
        <mxCell id="zlBBdxe0bt9fsabpmSAy-70" value="" style="endArrow=none;html=1;rounded=0;fontSize=8;entryX=1;entryY=0.5;entryDx=0;entryDy=0;" parent="1" edge="1">
          <mxGeometry width="50" height="50" relative="1" as="geometry">
            <mxPoint x="380" y="274.90000000000003" as="sourcePoint" />
            <mxPoint x="370" y="274.90000000000003" as="targetPoint" />
          </mxGeometry>
        </mxCell>
        <mxCell id="zlBBdxe0bt9fsabpmSAy-71" value="" style="endArrow=none;html=1;rounded=0;fontSize=8;entryX=1;entryY=0.5;entryDx=0;entryDy=0;" parent="1" edge="1">
          <mxGeometry width="50" height="50" relative="1" as="geometry">
            <mxPoint x="380" y="285" as="sourcePoint" />
            <mxPoint x="370" y="285" as="targetPoint" />
          </mxGeometry>
        </mxCell>
        <mxCell id="zlBBdxe0bt9fsabpmSAy-72" value="" style="endArrow=none;html=1;rounded=0;fontSize=8;entryX=1;entryY=0.5;entryDx=0;entryDy=0;" parent="1" edge="1">
          <mxGeometry width="50" height="50" relative="1" as="geometry">
            <mxPoint x="380" y="295" as="sourcePoint" />
            <mxPoint x="370" y="295" as="targetPoint" />
          </mxGeometry>
        </mxCell>
        <mxCell id="zlBBdxe0bt9fsabpmSAy-73" value="" style="endArrow=none;html=1;rounded=0;fontSize=8;entryX=1;entryY=0.5;entryDx=0;entryDy=0;" parent="1" edge="1">
          <mxGeometry width="50" height="50" relative="1" as="geometry">
            <mxPoint x="380" y="304.90000000000003" as="sourcePoint" />
            <mxPoint x="370" y="304.90000000000003" as="targetPoint" />
          </mxGeometry>
        </mxCell>
        <mxCell id="zlBBdxe0bt9fsabpmSAy-74" value="" style="endArrow=none;html=1;rounded=0;fontSize=8;entryX=1;entryY=0.5;entryDx=0;entryDy=0;" parent="1" edge="1">
          <mxGeometry width="50" height="50" relative="1" as="geometry">
            <mxPoint x="380" y="315" as="sourcePoint" />
            <mxPoint x="370" y="315" as="targetPoint" />
          </mxGeometry>
        </mxCell>
        <mxCell id="zlBBdxe0bt9fsabpmSAy-75" value="" style="endArrow=none;html=1;rounded=0;fontSize=8;entryX=1;entryY=0.5;entryDx=0;entryDy=0;" parent="1" edge="1">
          <mxGeometry width="50" height="50" relative="1" as="geometry">
            <mxPoint x="380" y="325" as="sourcePoint" />
            <mxPoint x="370" y="325" as="targetPoint" />
          </mxGeometry>
        </mxCell>
        <mxCell id="zlBBdxe0bt9fsabpmSAy-76" value="" style="endArrow=none;html=1;rounded=0;fontSize=8;entryX=1;entryY=0.5;entryDx=0;entryDy=0;" parent="1" edge="1">
          <mxGeometry width="50" height="50" relative="1" as="geometry">
            <mxPoint x="380" y="334.90000000000003" as="sourcePoint" />
            <mxPoint x="370" y="334.90000000000003" as="targetPoint" />
          </mxGeometry>
        </mxCell>
        <mxCell id="zlBBdxe0bt9fsabpmSAy-77" value="A0" style="text;html=1;strokeColor=none;fillColor=none;align=left;verticalAlign=middle;whiteSpace=wrap;rounded=0;rotation=0;fontSize=8;" parent="1" vertex="1">
          <mxGeometry x="120" y="151" width="50" height="10" as="geometry" />
        </mxCell>
        <mxCell id="zlBBdxe0bt9fsabpmSAy-78" value="A1" style="text;html=1;strokeColor=none;fillColor=none;align=left;verticalAlign=middle;whiteSpace=wrap;rounded=0;rotation=0;fontSize=8;" parent="1" vertex="1">
          <mxGeometry x="120" y="161" width="50" height="10" as="geometry" />
        </mxCell>
        <mxCell id="zlBBdxe0bt9fsabpmSAy-79" value="A2" style="text;html=1;strokeColor=none;fillColor=none;align=left;verticalAlign=middle;whiteSpace=wrap;rounded=0;rotation=0;fontSize=8;" parent="1" vertex="1">
          <mxGeometry x="120" y="171" width="50" height="10" as="geometry" />
        </mxCell>
        <mxCell id="zlBBdxe0bt9fsabpmSAy-80" value="A3" style="text;html=1;strokeColor=none;fillColor=none;align=left;verticalAlign=middle;whiteSpace=wrap;rounded=0;rotation=0;fontSize=8;" parent="1" vertex="1">
          <mxGeometry x="120" y="181" width="50" height="10" as="geometry" />
        </mxCell>
        <mxCell id="zlBBdxe0bt9fsabpmSAy-93" value="A4" style="text;html=1;strokeColor=none;fillColor=none;align=left;verticalAlign=middle;whiteSpace=wrap;rounded=0;rotation=0;fontSize=8;" parent="1" vertex="1">
          <mxGeometry x="120" y="191" width="50" height="10" as="geometry" />
        </mxCell>
        <mxCell id="zlBBdxe0bt9fsabpmSAy-94" value="A5" style="text;html=1;strokeColor=none;fillColor=none;align=left;verticalAlign=middle;whiteSpace=wrap;rounded=0;rotation=0;fontSize=8;" parent="1" vertex="1">
          <mxGeometry x="120" y="201" width="50" height="10" as="geometry" />
        </mxCell>
        <mxCell id="zlBBdxe0bt9fsabpmSAy-95" value="A6" style="text;html=1;strokeColor=none;fillColor=none;align=left;verticalAlign=middle;whiteSpace=wrap;rounded=0;rotation=0;fontSize=8;" parent="1" vertex="1">
          <mxGeometry x="120" y="211" width="50" height="10" as="geometry" />
        </mxCell>
        <mxCell id="zlBBdxe0bt9fsabpmSAy-96" value="A7" style="text;html=1;strokeColor=none;fillColor=none;align=left;verticalAlign=middle;whiteSpace=wrap;rounded=0;rotation=0;fontSize=8;" parent="1" vertex="1">
          <mxGeometry x="120" y="221" width="50" height="10" as="geometry" />
        </mxCell>
        <mxCell id="zlBBdxe0bt9fsabpmSAy-97" value="" style="endArrow=none;html=1;rounded=0;fontSize=8;entryX=1;entryY=0.5;entryDx=0;entryDy=0;align=left;" parent="1" edge="1">
          <mxGeometry width="50" height="50" relative="1" as="geometry">
            <mxPoint x="120" y="156" as="sourcePoint" />
            <mxPoint x="110" y="156" as="targetPoint" />
          </mxGeometry>
        </mxCell>
        <mxCell id="zlBBdxe0bt9fsabpmSAy-98" value="" style="endArrow=none;html=1;rounded=0;fontSize=8;entryX=1;entryY=0.5;entryDx=0;entryDy=0;align=left;" parent="1" edge="1">
          <mxGeometry width="50" height="50" relative="1" as="geometry">
            <mxPoint x="120" y="165.89999999999998" as="sourcePoint" />
            <mxPoint x="110" y="165.89999999999998" as="targetPoint" />
          </mxGeometry>
        </mxCell>
        <mxCell id="zlBBdxe0bt9fsabpmSAy-99" value="" style="endArrow=none;html=1;rounded=0;fontSize=8;entryX=1;entryY=0.5;entryDx=0;entryDy=0;align=left;" parent="1" edge="1">
          <mxGeometry width="50" height="50" relative="1" as="geometry">
            <mxPoint x="120" y="176" as="sourcePoint" />
            <mxPoint x="110" y="176" as="targetPoint" />
          </mxGeometry>
        </mxCell>
        <mxCell id="zlBBdxe0bt9fsabpmSAy-100" value="" style="endArrow=none;html=1;rounded=0;fontSize=8;entryX=1;entryY=0.5;entryDx=0;entryDy=0;align=left;" parent="1" edge="1">
          <mxGeometry width="50" height="50" relative="1" as="geometry">
            <mxPoint x="120" y="186" as="sourcePoint" />
            <mxPoint x="110" y="186" as="targetPoint" />
          </mxGeometry>
        </mxCell>
        <mxCell id="zlBBdxe0bt9fsabpmSAy-101" value="" style="endArrow=none;html=1;rounded=0;fontSize=8;entryX=1;entryY=0.5;entryDx=0;entryDy=0;align=left;" parent="1" edge="1">
          <mxGeometry width="50" height="50" relative="1" as="geometry">
            <mxPoint x="120" y="195.9000000000001" as="sourcePoint" />
            <mxPoint x="110" y="195.9000000000001" as="targetPoint" />
          </mxGeometry>
        </mxCell>
        <mxCell id="zlBBdxe0bt9fsabpmSAy-102" value="" style="endArrow=none;html=1;rounded=0;fontSize=8;entryX=1;entryY=0.5;entryDx=0;entryDy=0;align=left;" parent="1" edge="1">
          <mxGeometry width="50" height="50" relative="1" as="geometry">
            <mxPoint x="120" y="206" as="sourcePoint" />
            <mxPoint x="110" y="206" as="targetPoint" />
          </mxGeometry>
        </mxCell>
        <mxCell id="zlBBdxe0bt9fsabpmSAy-103" value="" style="endArrow=none;html=1;rounded=0;fontSize=8;entryX=1;entryY=0.5;entryDx=0;entryDy=0;align=left;" parent="1" edge="1">
          <mxGeometry width="50" height="50" relative="1" as="geometry">
            <mxPoint x="120" y="216" as="sourcePoint" />
            <mxPoint x="110" y="216" as="targetPoint" />
          </mxGeometry>
        </mxCell>
        <mxCell id="zlBBdxe0bt9fsabpmSAy-104" value="" style="endArrow=none;html=1;rounded=0;fontSize=8;entryX=1;entryY=0.5;entryDx=0;entryDy=0;align=left;" parent="1" edge="1">
          <mxGeometry width="50" height="50" relative="1" as="geometry">
            <mxPoint x="120" y="225.9000000000001" as="sourcePoint" />
            <mxPoint x="110" y="225.9000000000001" as="targetPoint" />
          </mxGeometry>
        </mxCell>
        <mxCell id="zlBBdxe0bt9fsabpmSAy-105" value="A8" style="text;html=1;strokeColor=none;fillColor=none;align=left;verticalAlign=middle;whiteSpace=wrap;rounded=0;rotation=0;fontSize=8;" parent="1" vertex="1">
          <mxGeometry x="120" y="241" width="50" height="10" as="geometry" />
        </mxCell>
        <mxCell id="zlBBdxe0bt9fsabpmSAy-106" value="A9" style="text;html=1;strokeColor=none;fillColor=none;align=left;verticalAlign=middle;whiteSpace=wrap;rounded=0;rotation=0;fontSize=8;" parent="1" vertex="1">
          <mxGeometry x="120" y="251" width="50" height="10" as="geometry" />
        </mxCell>
        <mxCell id="zlBBdxe0bt9fsabpmSAy-107" value="A11" style="text;html=1;strokeColor=none;fillColor=none;align=left;verticalAlign=middle;whiteSpace=wrap;rounded=0;rotation=0;fontSize=8;" parent="1" vertex="1">
          <mxGeometry x="120" y="261" width="50" height="10" as="geometry" />
        </mxCell>
        <mxCell id="zlBBdxe0bt9fsabpmSAy-108" value="A10" style="text;html=1;strokeColor=none;fillColor=none;align=left;verticalAlign=middle;whiteSpace=wrap;rounded=0;rotation=0;fontSize=8;" parent="1" vertex="1">
          <mxGeometry x="120" y="271" width="50" height="10" as="geometry" />
        </mxCell>
        <mxCell id="zlBBdxe0bt9fsabpmSAy-109" value="A12" style="text;html=1;strokeColor=none;fillColor=none;align=left;verticalAlign=middle;whiteSpace=wrap;rounded=0;rotation=0;fontSize=8;" parent="1" vertex="1">
          <mxGeometry x="120" y="281" width="50" height="10" as="geometry" />
        </mxCell>
        <mxCell id="zlBBdxe0bt9fsabpmSAy-110" value="A13" style="text;html=1;strokeColor=none;fillColor=none;align=left;verticalAlign=middle;whiteSpace=wrap;rounded=0;rotation=0;fontSize=8;" parent="1" vertex="1">
          <mxGeometry x="120" y="291" width="50" height="10" as="geometry" />
        </mxCell>
        <mxCell id="zlBBdxe0bt9fsabpmSAy-111" value="A14" style="text;html=1;strokeColor=none;fillColor=none;align=left;verticalAlign=middle;whiteSpace=wrap;rounded=0;rotation=0;fontSize=8;" parent="1" vertex="1">
          <mxGeometry x="120" y="301" width="50" height="10" as="geometry" />
        </mxCell>
        <mxCell id="zlBBdxe0bt9fsabpmSAy-112" value="A15" style="text;html=1;strokeColor=none;fillColor=none;align=left;verticalAlign=middle;whiteSpace=wrap;rounded=0;rotation=0;fontSize=8;" parent="1" vertex="1">
          <mxGeometry x="120" y="311" width="50" height="10" as="geometry" />
        </mxCell>
        <mxCell id="zlBBdxe0bt9fsabpmSAy-113" value="" style="endArrow=none;html=1;rounded=0;fontSize=8;entryX=1;entryY=0.5;entryDx=0;entryDy=0;align=left;" parent="1" edge="1">
          <mxGeometry width="50" height="50" relative="1" as="geometry">
            <mxPoint x="120" y="246" as="sourcePoint" />
            <mxPoint x="110" y="246" as="targetPoint" />
          </mxGeometry>
        </mxCell>
        <mxCell id="zlBBdxe0bt9fsabpmSAy-114" value="" style="endArrow=none;html=1;rounded=0;fontSize=8;entryX=1;entryY=0.5;entryDx=0;entryDy=0;align=left;" parent="1" edge="1">
          <mxGeometry width="50" height="50" relative="1" as="geometry">
            <mxPoint x="120" y="255.89999999999992" as="sourcePoint" />
            <mxPoint x="110" y="255.89999999999992" as="targetPoint" />
          </mxGeometry>
        </mxCell>
        <mxCell id="zlBBdxe0bt9fsabpmSAy-115" value="" style="endArrow=none;html=1;rounded=0;fontSize=8;entryX=1;entryY=0.5;entryDx=0;entryDy=0;align=left;" parent="1" edge="1">
          <mxGeometry width="50" height="50" relative="1" as="geometry">
            <mxPoint x="120" y="266" as="sourcePoint" />
            <mxPoint x="110" y="266" as="targetPoint" />
          </mxGeometry>
        </mxCell>
        <mxCell id="zlBBdxe0bt9fsabpmSAy-116" value="" style="endArrow=none;html=1;rounded=0;fontSize=8;entryX=1;entryY=0.5;entryDx=0;entryDy=0;align=left;" parent="1" edge="1">
          <mxGeometry width="50" height="50" relative="1" as="geometry">
            <mxPoint x="120" y="276" as="sourcePoint" />
            <mxPoint x="110" y="276" as="targetPoint" />
          </mxGeometry>
        </mxCell>
        <mxCell id="zlBBdxe0bt9fsabpmSAy-117" value="" style="endArrow=none;html=1;rounded=0;fontSize=8;entryX=1;entryY=0.5;entryDx=0;entryDy=0;align=left;" parent="1" edge="1">
          <mxGeometry width="50" height="50" relative="1" as="geometry">
            <mxPoint x="120" y="285.9000000000001" as="sourcePoint" />
            <mxPoint x="110" y="285.9000000000001" as="targetPoint" />
          </mxGeometry>
        </mxCell>
        <mxCell id="zlBBdxe0bt9fsabpmSAy-118" value="" style="endArrow=none;html=1;rounded=0;fontSize=8;entryX=1;entryY=0.5;entryDx=0;entryDy=0;align=left;" parent="1" edge="1">
          <mxGeometry width="50" height="50" relative="1" as="geometry">
            <mxPoint x="120" y="296" as="sourcePoint" />
            <mxPoint x="110" y="296" as="targetPoint" />
          </mxGeometry>
        </mxCell>
        <mxCell id="zlBBdxe0bt9fsabpmSAy-119" value="" style="endArrow=none;html=1;rounded=0;fontSize=8;entryX=1;entryY=0.5;entryDx=0;entryDy=0;align=left;" parent="1" edge="1">
          <mxGeometry width="50" height="50" relative="1" as="geometry">
            <mxPoint x="120" y="306" as="sourcePoint" />
            <mxPoint x="110" y="306" as="targetPoint" />
          </mxGeometry>
        </mxCell>
        <mxCell id="zlBBdxe0bt9fsabpmSAy-120" value="" style="endArrow=none;html=1;rounded=0;fontSize=8;entryX=1;entryY=0.5;entryDx=0;entryDy=0;align=left;" parent="1" edge="1">
          <mxGeometry width="50" height="50" relative="1" as="geometry">
            <mxPoint x="120" y="315.9000000000001" as="sourcePoint" />
            <mxPoint x="110" y="315.9000000000001" as="targetPoint" />
          </mxGeometry>
        </mxCell>
        <mxCell id="zlBBdxe0bt9fsabpmSAy-123" value="USB+V" style="text;html=1;strokeColor=none;fillColor=none;align=left;verticalAlign=middle;whiteSpace=wrap;rounded=0;rotation=90;fontSize=8;" parent="1" vertex="1">
          <mxGeometry x="261" y="50" width="50" height="10" as="geometry" />
        </mxCell>
        <mxCell id="zlBBdxe0bt9fsabpmSAy-124" value="USBD+" style="text;html=1;strokeColor=none;fillColor=none;align=left;verticalAlign=middle;whiteSpace=wrap;rounded=0;rotation=90;fontSize=8;" parent="1" vertex="1">
          <mxGeometry x="251" y="50" width="50" height="10" as="geometry" />
        </mxCell>
        <mxCell id="zlBBdxe0bt9fsabpmSAy-125" value="USBD-" style="text;html=1;strokeColor=none;fillColor=none;align=left;verticalAlign=middle;whiteSpace=wrap;rounded=0;rotation=90;fontSize=8;" parent="1" vertex="1">
          <mxGeometry x="241" y="50" width="50" height="10" as="geometry" />
        </mxCell>
        <mxCell id="zlBBdxe0bt9fsabpmSAy-126" value="USBGND" style="text;html=1;strokeColor=none;fillColor=none;align=left;verticalAlign=middle;whiteSpace=wrap;rounded=0;rotation=90;fontSize=8;" parent="1" vertex="1">
          <mxGeometry x="231" y="50" width="50" height="10" as="geometry" />
        </mxCell>
        <mxCell id="zlBBdxe0bt9fsabpmSAy-127" value="" style="endArrow=none;html=1;rounded=0;fontSize=8;entryX=0;entryY=0.5;entryDx=0;entryDy=0;exitX=1;exitY=0.5;exitDx=0;exitDy=0;" parent="1" target="zlBBdxe0bt9fsabpmSAy-123" edge="1" source="tHKBDyenzgohp8NIYTpj-5">
          <mxGeometry width="50" height="50" relative="1" as="geometry">
            <mxPoint x="286" y="20" as="sourcePoint" />
            <mxPoint x="370" y="31" as="targetPoint" />
            <Array as="points">
              <mxPoint x="286" y="-155" />
            </Array>
          </mxGeometry>
        </mxCell>
        <mxCell id="zlBBdxe0bt9fsabpmSAy-128" value="" style="endArrow=none;html=1;rounded=0;fontSize=8;entryX=0;entryY=0.5;entryDx=0;entryDy=0;exitX=1;exitY=0.5;exitDx=0;exitDy=0;" parent="1" edge="1" source="tHKBDyenzgohp8NIYTpj-6">
          <mxGeometry width="50" height="50" relative="1" as="geometry">
            <mxPoint x="276" y="20" as="sourcePoint" />
            <mxPoint x="276" y="30" as="targetPoint" />
            <Array as="points">
              <mxPoint x="276" y="-145" />
            </Array>
          </mxGeometry>
        </mxCell>
        <mxCell id="zlBBdxe0bt9fsabpmSAy-129" value="" style="endArrow=none;html=1;rounded=0;fontSize=8;entryX=0;entryY=0.5;entryDx=0;entryDy=0;exitX=1.002;exitY=0.601;exitDx=0;exitDy=0;exitPerimeter=0;" parent="1" edge="1" source="tHKBDyenzgohp8NIYTpj-2">
          <mxGeometry width="50" height="50" relative="1" as="geometry">
            <mxPoint x="266" y="20" as="sourcePoint" />
            <mxPoint x="266" y="30" as="targetPoint" />
            <Array as="points">
              <mxPoint x="266" y="-134" />
            </Array>
          </mxGeometry>
        </mxCell>
        <mxCell id="zlBBdxe0bt9fsabpmSAy-130" value="" style="endArrow=none;html=1;rounded=0;fontSize=8;entryX=0;entryY=0.5;entryDx=0;entryDy=0;exitX=1;exitY=0.5;exitDx=0;exitDy=0;" parent="1" edge="1" source="tHKBDyenzgohp8NIYTpj-8">
          <mxGeometry width="50" height="50" relative="1" as="geometry">
            <mxPoint x="256" y="20" as="sourcePoint" />
            <mxPoint x="256" y="30" as="targetPoint" />
            <Array as="points">
              <mxPoint x="256" y="-125" />
            </Array>
          </mxGeometry>
        </mxCell>
        <mxCell id="zlBBdxe0bt9fsabpmSAy-131" value="PWR+V" style="text;html=1;strokeColor=none;fillColor=none;align=left;verticalAlign=middle;whiteSpace=wrap;rounded=0;rotation=90;fontSize=8;" parent="1" vertex="1">
          <mxGeometry x="189" y="50" width="50" height="10" as="geometry" />
        </mxCell>
        <mxCell id="zlBBdxe0bt9fsabpmSAy-132" value="PWR-V" style="text;html=1;strokeColor=none;fillColor=none;align=left;verticalAlign=middle;whiteSpace=wrap;rounded=0;rotation=90;fontSize=8;" parent="1" vertex="1">
          <mxGeometry x="179" y="50" width="50" height="10" as="geometry" />
        </mxCell>
        <mxCell id="zlBBdxe0bt9fsabpmSAy-133" value="" style="endArrow=none;html=1;rounded=0;fontSize=8;entryX=0;entryY=0.5;entryDx=0;entryDy=0;exitX=1;exitY=0.5;exitDx=0;exitDy=0;" parent="1" edge="1" target="zlBBdxe0bt9fsabpmSAy-131" source="tHKBDyenzgohp8NIYTpj-11">
          <mxGeometry width="50" height="50" relative="1" as="geometry">
            <mxPoint x="170" y="-80" as="sourcePoint" />
            <mxPoint x="230" y="20" as="targetPoint" />
            <Array as="points">
              <mxPoint x="214" y="-90" />
            </Array>
          </mxGeometry>
        </mxCell>
        <mxCell id="zlBBdxe0bt9fsabpmSAy-134" value="" style="endArrow=none;html=1;rounded=0;fontSize=8;entryX=0;entryY=0.5;entryDx=0;entryDy=0;exitX=1;exitY=0.5;exitDx=0;exitDy=0;" parent="1" edge="1" target="zlBBdxe0bt9fsabpmSAy-132" source="tHKBDyenzgohp8NIYTpj-12">
          <mxGeometry width="50" height="50" relative="1" as="geometry">
            <mxPoint x="160" y="-80" as="sourcePoint" />
            <mxPoint x="204" y="30" as="targetPoint" />
            <Array as="points">
              <mxPoint x="204" y="-74" />
            </Array>
          </mxGeometry>
        </mxCell>
        <mxCell id="zlBBdxe0bt9fsabpmSAy-149" value="+5V" style="text;html=1;strokeColor=none;fillColor=none;align=right;verticalAlign=middle;whiteSpace=wrap;rounded=0;rotation=90;fontSize=8;" parent="1" vertex="1">
          <mxGeometry x="305" y="470" width="50" height="10" as="geometry" />
        </mxCell>
        <mxCell id="zlBBdxe0bt9fsabpmSAy-150" value="23" style="text;html=1;strokeColor=none;fillColor=none;align=right;verticalAlign=middle;whiteSpace=wrap;rounded=0;rotation=90;fontSize=8;" parent="1" vertex="1">
          <mxGeometry x="295" y="470" width="50" height="10" as="geometry" />
        </mxCell>
        <mxCell id="zlBBdxe0bt9fsabpmSAy-151" value="25" style="text;html=1;strokeColor=none;fillColor=none;align=right;verticalAlign=middle;whiteSpace=wrap;rounded=0;rotation=90;fontSize=8;" parent="1" vertex="1">
          <mxGeometry x="285" y="470" width="50" height="10" as="geometry" />
        </mxCell>
        <mxCell id="zlBBdxe0bt9fsabpmSAy-152" value="27" style="text;html=1;strokeColor=none;fillColor=none;align=right;verticalAlign=middle;whiteSpace=wrap;rounded=0;rotation=90;fontSize=8;" parent="1" vertex="1">
          <mxGeometry x="275" y="470" width="50" height="10" as="geometry" />
        </mxCell>
        <mxCell id="zlBBdxe0bt9fsabpmSAy-157" value="29" style="text;html=1;strokeColor=none;fillColor=none;align=right;verticalAlign=middle;whiteSpace=wrap;rounded=0;rotation=90;fontSize=8;" parent="1" vertex="1">
          <mxGeometry x="265" y="470" width="50" height="10" as="geometry" />
        </mxCell>
        <mxCell id="zlBBdxe0bt9fsabpmSAy-158" value="31" style="text;html=1;strokeColor=none;fillColor=none;align=right;verticalAlign=middle;whiteSpace=wrap;rounded=0;rotation=90;fontSize=8;" parent="1" vertex="1">
          <mxGeometry x="255" y="470" width="50" height="10" as="geometry" />
        </mxCell>
        <mxCell id="zlBBdxe0bt9fsabpmSAy-159" value="33" style="text;html=1;strokeColor=none;fillColor=none;align=right;verticalAlign=middle;whiteSpace=wrap;rounded=0;rotation=90;fontSize=8;" parent="1" vertex="1">
          <mxGeometry x="245" y="470" width="50" height="10" as="geometry" />
        </mxCell>
        <mxCell id="zlBBdxe0bt9fsabpmSAy-160" value="35" style="text;html=1;strokeColor=none;fillColor=none;align=right;verticalAlign=middle;whiteSpace=wrap;rounded=0;rotation=90;fontSize=8;" parent="1" vertex="1">
          <mxGeometry x="235" y="470" width="50" height="10" as="geometry" />
        </mxCell>
        <mxCell id="zlBBdxe0bt9fsabpmSAy-165" value="37" style="text;html=1;strokeColor=none;fillColor=none;align=right;verticalAlign=middle;whiteSpace=wrap;rounded=0;rotation=90;fontSize=8;" parent="1" vertex="1">
          <mxGeometry x="225" y="470" width="50" height="10" as="geometry" />
        </mxCell>
        <mxCell id="zlBBdxe0bt9fsabpmSAy-166" value="39" style="text;html=1;strokeColor=none;fillColor=none;align=right;verticalAlign=middle;whiteSpace=wrap;rounded=0;rotation=90;fontSize=8;" parent="1" vertex="1">
          <mxGeometry x="215" y="470" width="50" height="10" as="geometry" />
        </mxCell>
        <mxCell id="zlBBdxe0bt9fsabpmSAy-167" value="41" style="text;html=1;strokeColor=none;fillColor=none;align=right;verticalAlign=middle;whiteSpace=wrap;rounded=0;rotation=90;fontSize=8;" parent="1" vertex="1">
          <mxGeometry x="205" y="470" width="50" height="10" as="geometry" />
        </mxCell>
        <mxCell id="zlBBdxe0bt9fsabpmSAy-168" value="43" style="text;html=1;strokeColor=none;fillColor=none;align=right;verticalAlign=middle;whiteSpace=wrap;rounded=0;rotation=90;fontSize=8;" parent="1" vertex="1">
          <mxGeometry x="195" y="470" width="50" height="10" as="geometry" />
        </mxCell>
        <mxCell id="zlBBdxe0bt9fsabpmSAy-169" value="45" style="text;html=1;strokeColor=none;fillColor=none;align=right;verticalAlign=middle;whiteSpace=wrap;rounded=0;rotation=90;fontSize=8;" parent="1" vertex="1">
          <mxGeometry x="185" y="470" width="50" height="10" as="geometry" />
        </mxCell>
        <mxCell id="zlBBdxe0bt9fsabpmSAy-170" value="47" style="text;html=1;strokeColor=none;fillColor=none;align=right;verticalAlign=middle;whiteSpace=wrap;rounded=0;rotation=90;fontSize=8;" parent="1" vertex="1">
          <mxGeometry x="175" y="470" width="50" height="10" as="geometry" />
        </mxCell>
        <mxCell id="zlBBdxe0bt9fsabpmSAy-171" value="49" style="text;html=1;strokeColor=none;fillColor=none;align=right;verticalAlign=middle;whiteSpace=wrap;rounded=0;rotation=90;fontSize=8;" parent="1" vertex="1">
          <mxGeometry x="165" y="470" width="50" height="10" as="geometry" />
        </mxCell>
        <mxCell id="zlBBdxe0bt9fsabpmSAy-172" value="51" style="text;html=1;strokeColor=none;fillColor=none;align=right;verticalAlign=middle;whiteSpace=wrap;rounded=0;rotation=90;fontSize=8;" parent="1" vertex="1">
          <mxGeometry x="155" y="470" width="50" height="10" as="geometry" />
        </mxCell>
        <mxCell id="zlBBdxe0bt9fsabpmSAy-173" value="53" style="text;html=1;strokeColor=none;fillColor=none;align=right;verticalAlign=middle;whiteSpace=wrap;rounded=0;rotation=90;fontSize=8;" parent="1" vertex="1">
          <mxGeometry x="145" y="470" width="50" height="10" as="geometry" />
        </mxCell>
        <mxCell id="zlBBdxe0bt9fsabpmSAy-174" value="GND" style="text;html=1;strokeColor=none;fillColor=none;align=right;verticalAlign=middle;whiteSpace=wrap;rounded=0;rotation=90;fontSize=8;" parent="1" vertex="1">
          <mxGeometry x="135" y="470" width="50" height="10" as="geometry" />
        </mxCell>
        <mxCell id="zlBBdxe0bt9fsabpmSAy-177" value="+5V" style="text;html=1;strokeColor=none;fillColor=none;align=right;verticalAlign=middle;whiteSpace=wrap;rounded=0;rotation=0;fontSize=8;" parent="1" vertex="1">
          <mxGeometry x="320" y="487" width="50" height="10" as="geometry" />
        </mxCell>
        <mxCell id="zlBBdxe0bt9fsabpmSAy-178" value="22" style="text;html=1;strokeColor=none;fillColor=none;align=left;verticalAlign=middle;whiteSpace=wrap;rounded=0;rotation=0;fontSize=8;" parent="1" vertex="1">
          <mxGeometry x="120" y="321" width="50" height="10" as="geometry" />
        </mxCell>
        <mxCell id="zlBBdxe0bt9fsabpmSAy-193" value="52" style="text;html=1;strokeColor=none;fillColor=none;align=left;verticalAlign=middle;whiteSpace=wrap;rounded=0;rotation=0;fontSize=8;" parent="1" vertex="1">
          <mxGeometry x="120" y="473" width="50" height="10" as="geometry" />
        </mxCell>
        <mxCell id="zlBBdxe0bt9fsabpmSAy-194" value="GND" style="text;html=1;strokeColor=none;fillColor=none;align=left;verticalAlign=middle;whiteSpace=wrap;rounded=0;rotation=0;fontSize=8;" parent="1" vertex="1">
          <mxGeometry x="120" y="487" width="50" height="10" as="geometry" />
        </mxCell>
        <mxCell id="zlBBdxe0bt9fsabpmSAy-218" value="" style="endArrow=none;html=1;rounded=0;fontSize=8;entryX=0;entryY=0.5;entryDx=0;entryDy=0;align=right;" parent="1" edge="1">
          <mxGeometry width="50" height="50" relative="1" as="geometry">
            <mxPoint x="179.88" y="500" as="sourcePoint" />
            <mxPoint x="179.88" y="510" as="targetPoint" />
          </mxGeometry>
        </mxCell>
        <mxCell id="zlBBdxe0bt9fsabpmSAy-219" value="" style="endArrow=none;html=1;rounded=0;fontSize=8;entryX=0;entryY=0.5;entryDx=0;entryDy=0;align=right;" parent="1" edge="1">
          <mxGeometry width="50" height="50" relative="1" as="geometry">
            <mxPoint x="169.88" y="500" as="sourcePoint" />
            <mxPoint x="169.88" y="510" as="targetPoint" />
          </mxGeometry>
        </mxCell>
        <mxCell id="zlBBdxe0bt9fsabpmSAy-246" value="(NC)" style="text;html=1;strokeColor=none;fillColor=none;align=left;verticalAlign=middle;whiteSpace=wrap;rounded=0;rotation=0;fontSize=8;" parent="1" vertex="1">
          <mxGeometry x="120" y="61" width="50" height="10" as="geometry" />
        </mxCell>
        <mxCell id="zlBBdxe0bt9fsabpmSAy-247" value="IOREF" style="text;html=1;strokeColor=none;fillColor=none;align=left;verticalAlign=middle;whiteSpace=wrap;rounded=0;rotation=0;fontSize=8;" parent="1" vertex="1">
          <mxGeometry x="120" y="71" width="50" height="10" as="geometry" />
        </mxCell>
        <mxCell id="zlBBdxe0bt9fsabpmSAy-248" value="RESET" style="text;html=1;strokeColor=none;fillColor=none;align=left;verticalAlign=middle;whiteSpace=wrap;rounded=0;rotation=0;fontSize=8;" parent="1" vertex="1">
          <mxGeometry x="120" y="81" width="50" height="10" as="geometry" />
        </mxCell>
        <mxCell id="zlBBdxe0bt9fsabpmSAy-249" value="3.3V" style="text;html=1;strokeColor=none;fillColor=none;align=left;verticalAlign=middle;whiteSpace=wrap;rounded=0;rotation=0;fontSize=8;" parent="1" vertex="1">
          <mxGeometry x="120" y="91" width="50" height="10" as="geometry" />
        </mxCell>
        <mxCell id="zlBBdxe0bt9fsabpmSAy-250" value="5V" style="text;html=1;strokeColor=none;fillColor=none;align=left;verticalAlign=middle;whiteSpace=wrap;rounded=0;rotation=0;fontSize=8;" parent="1" vertex="1">
          <mxGeometry x="120" y="101" width="50" height="10" as="geometry" />
        </mxCell>
        <mxCell id="zlBBdxe0bt9fsabpmSAy-251" value="GND" style="text;html=1;strokeColor=none;fillColor=none;align=left;verticalAlign=middle;whiteSpace=wrap;rounded=0;rotation=0;fontSize=8;" parent="1" vertex="1">
          <mxGeometry x="120" y="111" width="50" height="10" as="geometry" />
        </mxCell>
        <mxCell id="zlBBdxe0bt9fsabpmSAy-252" value="GND" style="text;html=1;strokeColor=none;fillColor=none;align=left;verticalAlign=middle;whiteSpace=wrap;rounded=0;rotation=0;fontSize=8;" parent="1" vertex="1">
          <mxGeometry x="120" y="121" width="50" height="10" as="geometry" />
        </mxCell>
        <mxCell id="zlBBdxe0bt9fsabpmSAy-253" value="VIN" style="text;html=1;strokeColor=none;fillColor=none;align=left;verticalAlign=middle;whiteSpace=wrap;rounded=0;rotation=0;fontSize=8;" parent="1" vertex="1">
          <mxGeometry x="120" y="131" width="50" height="10" as="geometry" />
        </mxCell>
        <mxCell id="zlBBdxe0bt9fsabpmSAy-254" value="" style="endArrow=none;html=1;rounded=0;fontSize=8;entryX=1;entryY=0.5;entryDx=0;entryDy=0;align=left;" parent="1" edge="1">
          <mxGeometry width="50" height="50" relative="1" as="geometry">
            <mxPoint x="120" y="66" as="sourcePoint" />
            <mxPoint x="110" y="66" as="targetPoint" />
          </mxGeometry>
        </mxCell>
        <mxCell id="zlBBdxe0bt9fsabpmSAy-255" value="" style="endArrow=none;html=1;rounded=0;fontSize=8;entryX=1;entryY=0.5;entryDx=0;entryDy=0;align=left;" parent="1" edge="1">
          <mxGeometry width="50" height="50" relative="1" as="geometry">
            <mxPoint x="120" y="75.89999999999992" as="sourcePoint" />
            <mxPoint x="110" y="75.89999999999992" as="targetPoint" />
          </mxGeometry>
        </mxCell>
        <mxCell id="zlBBdxe0bt9fsabpmSAy-256" value="" style="endArrow=none;html=1;rounded=0;fontSize=8;entryX=1;entryY=0.5;entryDx=0;entryDy=0;align=left;" parent="1" edge="1">
          <mxGeometry width="50" height="50" relative="1" as="geometry">
            <mxPoint x="120" y="86" as="sourcePoint" />
            <mxPoint x="110" y="86" as="targetPoint" />
          </mxGeometry>
        </mxCell>
        <mxCell id="zlBBdxe0bt9fsabpmSAy-257" value="" style="endArrow=none;html=1;rounded=0;fontSize=8;entryX=1;entryY=0.5;entryDx=0;entryDy=0;align=left;" parent="1" edge="1">
          <mxGeometry width="50" height="50" relative="1" as="geometry">
            <mxPoint x="120" y="96" as="sourcePoint" />
            <mxPoint x="110" y="96" as="targetPoint" />
          </mxGeometry>
        </mxCell>
        <mxCell id="zlBBdxe0bt9fsabpmSAy-260" value="" style="endArrow=none;html=1;rounded=0;fontSize=8;entryX=1;entryY=0.5;entryDx=0;entryDy=0;align=left;" parent="1" edge="1">
          <mxGeometry width="50" height="50" relative="1" as="geometry">
            <mxPoint x="120" y="126" as="sourcePoint" />
            <mxPoint x="110" y="126" as="targetPoint" />
          </mxGeometry>
        </mxCell>
        <mxCell id="zlBBdxe0bt9fsabpmSAy-261" value="" style="endArrow=none;html=1;rounded=0;fontSize=8;entryX=1;entryY=0.5;entryDx=0;entryDy=0;align=left;" parent="1" edge="1">
          <mxGeometry width="50" height="50" relative="1" as="geometry">
            <mxPoint x="120" y="135.9000000000001" as="sourcePoint" />
            <mxPoint x="110" y="135.9000000000001" as="targetPoint" />
          </mxGeometry>
        </mxCell>
        <mxCell id="zlBBdxe0bt9fsabpmSAy-265" value="" style="rounded=0;whiteSpace=wrap;html=1;fontSize=8;" parent="1" vertex="1">
          <mxGeometry x="610" y="31" width="120" height="60" as="geometry" />
        </mxCell>
        <mxCell id="zlBBdxe0bt9fsabpmSAy-266" value="" style="rounded=0;whiteSpace=wrap;html=1;fontSize=8;" parent="1" vertex="1">
          <mxGeometry x="610" y="119" width="120" height="60" as="geometry" />
        </mxCell>
        <mxCell id="zlBBdxe0bt9fsabpmSAy-267" value="" style="rounded=0;whiteSpace=wrap;html=1;fontSize=8;" parent="1" vertex="1">
          <mxGeometry x="610" y="207" width="120" height="60" as="geometry" />
        </mxCell>
        <mxCell id="zlBBdxe0bt9fsabpmSAy-270" value="LM393 1" style="text;html=1;align=center;verticalAlign=middle;resizable=0;points=[];autosize=1;strokeColor=none;fillColor=none;fontSize=8;" parent="1" vertex="1">
          <mxGeometry x="341" y="-324" width="50" height="20" as="geometry" />
        </mxCell>
        <mxCell id="zlBBdxe0bt9fsabpmSAy-271" value="HC-SR04 2" style="text;html=1;align=center;verticalAlign=middle;resizable=0;points=[];autosize=1;strokeColor=none;fillColor=none;fontSize=8;" parent="1" vertex="1">
          <mxGeometry x="605" y="99" width="60" height="20" as="geometry" />
        </mxCell>
        <mxCell id="zlBBdxe0bt9fsabpmSAy-272" value="HC-SR04 3" style="text;html=1;align=center;verticalAlign=middle;resizable=0;points=[];autosize=1;strokeColor=none;fillColor=none;fontSize=8;" parent="1" vertex="1">
          <mxGeometry x="605" y="186" width="60" height="20" as="geometry" />
        </mxCell>
        <mxCell id="zlBBdxe0bt9fsabpmSAy-273" value="VCC" style="text;html=1;strokeColor=none;fillColor=none;align=left;verticalAlign=middle;whiteSpace=wrap;rounded=0;rotation=0;fontSize=8;" parent="1" vertex="1">
          <mxGeometry x="610" y="41" width="50" height="10" as="geometry" />
        </mxCell>
        <mxCell id="zlBBdxe0bt9fsabpmSAy-274" value="TRIG" style="text;html=1;strokeColor=none;fillColor=none;align=left;verticalAlign=middle;whiteSpace=wrap;rounded=0;rotation=0;fontSize=8;" parent="1" vertex="1">
          <mxGeometry x="610" y="51" width="50" height="10" as="geometry" />
        </mxCell>
        <mxCell id="zlBBdxe0bt9fsabpmSAy-275" value="ECHO" style="text;html=1;strokeColor=none;fillColor=none;align=left;verticalAlign=middle;whiteSpace=wrap;rounded=0;rotation=0;fontSize=8;" parent="1" vertex="1">
          <mxGeometry x="610" y="61" width="50" height="10" as="geometry" />
        </mxCell>
        <mxCell id="zlBBdxe0bt9fsabpmSAy-276" value="GND" style="text;html=1;strokeColor=none;fillColor=none;align=left;verticalAlign=middle;whiteSpace=wrap;rounded=0;rotation=0;fontSize=8;" parent="1" vertex="1">
          <mxGeometry x="610" y="71" width="50" height="10" as="geometry" />
        </mxCell>
        <mxCell id="zlBBdxe0bt9fsabpmSAy-278" value="" style="endArrow=none;html=1;rounded=0;fontSize=8;entryX=1;entryY=0.5;entryDx=0;entryDy=0;fillColor=#d5e8d4;strokeColor=#000000;exitX=0;exitY=0.5;exitDx=0;exitDy=0;" parent="1" source="zlBBdxe0bt9fsabpmSAy-274" target="zlBBdxe0bt9fsabpmSAy-28" edge="1">
          <mxGeometry width="50" height="50" relative="1" as="geometry">
            <mxPoint x="530" y="54.900000000000034" as="sourcePoint" />
            <mxPoint x="520" y="54.900000000000034" as="targetPoint" />
            <Array as="points">
              <mxPoint x="430" y="56" />
              <mxPoint x="430" y="105" />
              <mxPoint x="380" y="105" />
            </Array>
          </mxGeometry>
        </mxCell>
        <mxCell id="zlBBdxe0bt9fsabpmSAy-279" value="" style="endArrow=none;html=1;rounded=0;fontSize=8;entryX=1;entryY=0.5;entryDx=0;entryDy=0;fillColor=#fff2cc;strokeColor=#000000;exitX=0;exitY=0.5;exitDx=0;exitDy=0;" parent="1" source="zlBBdxe0bt9fsabpmSAy-275" target="zlBBdxe0bt9fsabpmSAy-31" edge="1">
          <mxGeometry width="50" height="50" relative="1" as="geometry">
            <mxPoint x="530" y="64.99999999999994" as="sourcePoint" />
            <mxPoint x="520" y="64.99999999999994" as="targetPoint" />
            <Array as="points">
              <mxPoint x="400" y="66" />
              <mxPoint x="400" y="135" />
            </Array>
          </mxGeometry>
        </mxCell>
        <mxCell id="zlBBdxe0bt9fsabpmSAy-281" value="VCC" style="text;html=1;strokeColor=none;fillColor=none;align=left;verticalAlign=middle;whiteSpace=wrap;rounded=0;rotation=0;fontSize=8;" parent="1" vertex="1">
          <mxGeometry x="610" y="129" width="50" height="10" as="geometry" />
        </mxCell>
        <mxCell id="zlBBdxe0bt9fsabpmSAy-282" value="TRIG" style="text;html=1;strokeColor=none;fillColor=none;align=left;verticalAlign=middle;whiteSpace=wrap;rounded=0;rotation=0;fontSize=8;" parent="1" vertex="1">
          <mxGeometry x="610" y="139" width="50" height="10" as="geometry" />
        </mxCell>
        <mxCell id="zlBBdxe0bt9fsabpmSAy-283" value="ECHO" style="text;html=1;strokeColor=none;fillColor=none;align=left;verticalAlign=middle;whiteSpace=wrap;rounded=0;rotation=0;fontSize=8;" parent="1" vertex="1">
          <mxGeometry x="610" y="149" width="50" height="10" as="geometry" />
        </mxCell>
        <mxCell id="zlBBdxe0bt9fsabpmSAy-284" value="GND" style="text;html=1;strokeColor=none;fillColor=none;align=left;verticalAlign=middle;whiteSpace=wrap;rounded=0;rotation=0;fontSize=8;" parent="1" vertex="1">
          <mxGeometry x="610" y="159" width="50" height="10" as="geometry" />
        </mxCell>
        <mxCell id="zlBBdxe0bt9fsabpmSAy-286" value="" style="endArrow=none;html=1;rounded=0;fontSize=8;entryX=1;entryY=0.5;entryDx=0;entryDy=0;fillColor=#d5e8d4;strokeColor=#000000;exitX=0;exitY=0.5;exitDx=0;exitDy=0;" parent="1" source="zlBBdxe0bt9fsabpmSAy-282" target="zlBBdxe0bt9fsabpmSAy-29" edge="1">
          <mxGeometry width="50" height="50" relative="1" as="geometry">
            <mxPoint x="530" y="142.90000000000003" as="sourcePoint" />
            <mxPoint x="520" y="142.90000000000003" as="targetPoint" />
            <Array as="points">
              <mxPoint x="430" y="144" />
              <mxPoint x="430" y="115" />
            </Array>
          </mxGeometry>
        </mxCell>
        <mxCell id="zlBBdxe0bt9fsabpmSAy-287" value="" style="endArrow=none;html=1;rounded=0;fontSize=8;entryX=1;entryY=0.5;entryDx=0;entryDy=0;fillColor=#fff2cc;strokeColor=#000000;exitX=0;exitY=0.5;exitDx=0;exitDy=0;" parent="1" source="zlBBdxe0bt9fsabpmSAy-283" target="zlBBdxe0bt9fsabpmSAy-32" edge="1">
          <mxGeometry width="50" height="50" relative="1" as="geometry">
            <mxPoint x="530" y="152.99999999999991" as="sourcePoint" />
            <mxPoint x="520" y="152.99999999999991" as="targetPoint" />
            <Array as="points">
              <mxPoint x="410" y="154" />
              <mxPoint x="410" y="145" />
            </Array>
          </mxGeometry>
        </mxCell>
        <mxCell id="zlBBdxe0bt9fsabpmSAy-288" value="" style="endArrow=none;html=1;rounded=0;fontSize=8;exitX=0;exitY=0.5;exitDx=0;exitDy=0;" parent="1" source="zlBBdxe0bt9fsabpmSAy-284" edge="1">
          <mxGeometry width="50" height="50" relative="1" as="geometry">
            <mxPoint x="530" y="163" as="sourcePoint" />
            <mxPoint x="460" y="164" as="targetPoint" />
          </mxGeometry>
        </mxCell>
        <mxCell id="zlBBdxe0bt9fsabpmSAy-289" value="VCC" style="text;html=1;strokeColor=none;fillColor=none;align=left;verticalAlign=middle;whiteSpace=wrap;rounded=0;rotation=0;fontSize=8;" parent="1" vertex="1">
          <mxGeometry x="610" y="217" width="50" height="10" as="geometry" />
        </mxCell>
        <mxCell id="zlBBdxe0bt9fsabpmSAy-290" value="TRIG" style="text;html=1;strokeColor=none;fillColor=none;align=left;verticalAlign=middle;whiteSpace=wrap;rounded=0;rotation=0;fontSize=8;" parent="1" vertex="1">
          <mxGeometry x="610" y="227" width="50" height="10" as="geometry" />
        </mxCell>
        <mxCell id="zlBBdxe0bt9fsabpmSAy-291" value="ECHO" style="text;html=1;strokeColor=none;fillColor=none;align=left;verticalAlign=middle;whiteSpace=wrap;rounded=0;rotation=0;fontSize=8;" parent="1" vertex="1">
          <mxGeometry x="610" y="237" width="50" height="10" as="geometry" />
        </mxCell>
        <mxCell id="zlBBdxe0bt9fsabpmSAy-292" value="GND" style="text;html=1;strokeColor=none;fillColor=none;align=left;verticalAlign=middle;whiteSpace=wrap;rounded=0;rotation=0;fontSize=8;" parent="1" vertex="1">
          <mxGeometry x="610" y="247" width="50" height="10" as="geometry" />
        </mxCell>
        <mxCell id="zlBBdxe0bt9fsabpmSAy-294" value="" style="endArrow=none;html=1;rounded=0;fontSize=8;entryX=1;entryY=0.5;entryDx=0;entryDy=0;fillColor=#d5e8d4;strokeColor=#000000;exitX=0;exitY=0.5;exitDx=0;exitDy=0;" parent="1" source="zlBBdxe0bt9fsabpmSAy-290" target="zlBBdxe0bt9fsabpmSAy-30" edge="1">
          <mxGeometry width="50" height="50" relative="1" as="geometry">
            <mxPoint x="530" y="231.90000000000003" as="sourcePoint" />
            <mxPoint x="370" y="126" as="targetPoint" />
            <Array as="points">
              <mxPoint x="420" y="232" />
              <mxPoint x="420" y="150" />
              <mxPoint x="420" y="130" />
              <mxPoint x="420" y="125" />
            </Array>
          </mxGeometry>
        </mxCell>
        <mxCell id="zlBBdxe0bt9fsabpmSAy-295" value="" style="endArrow=none;html=1;rounded=0;fontSize=8;entryX=1;entryY=0.5;entryDx=0;entryDy=0;fillColor=#fff2cc;strokeColor=#000000;exitX=0;exitY=0.5;exitDx=0;exitDy=0;" parent="1" source="zlBBdxe0bt9fsabpmSAy-291" target="zlBBdxe0bt9fsabpmSAy-33" edge="1">
          <mxGeometry width="50" height="50" relative="1" as="geometry">
            <mxPoint x="530" y="240.9999999999999" as="sourcePoint" />
            <mxPoint x="520" y="240.9999999999999" as="targetPoint" />
            <Array as="points">
              <mxPoint x="400" y="242" />
              <mxPoint x="400" y="155" />
            </Array>
          </mxGeometry>
        </mxCell>
        <mxCell id="zlBBdxe0bt9fsabpmSAy-296" value="" style="endArrow=none;html=1;rounded=0;fontSize=8;exitX=0;exitY=0.5;exitDx=0;exitDy=0;" parent="1" source="zlBBdxe0bt9fsabpmSAy-292" edge="1">
          <mxGeometry width="50" height="50" relative="1" as="geometry">
            <mxPoint x="530" y="251" as="sourcePoint" />
            <mxPoint x="460" y="252" as="targetPoint" />
          </mxGeometry>
        </mxCell>
        <mxCell id="zlBBdxe0bt9fsabpmSAy-303" value="" style="rounded=0;whiteSpace=wrap;html=1;fontSize=8;" parent="1" vertex="1">
          <mxGeometry x="610" y="294" width="120" height="120" as="geometry" />
        </mxCell>
        <mxCell id="zlBBdxe0bt9fsabpmSAy-304" value="" style="rounded=0;whiteSpace=wrap;html=1;fontSize=8;" parent="1" vertex="1">
          <mxGeometry x="610" y="467" width="120" height="120" as="geometry" />
        </mxCell>
        <mxCell id="zlBBdxe0bt9fsabpmSAy-307" value="PWMA" style="text;html=1;strokeColor=none;fillColor=none;align=left;verticalAlign=middle;whiteSpace=wrap;rounded=0;rotation=0;fontSize=8;" parent="1" vertex="1">
          <mxGeometry x="610" y="314" width="50" height="10" as="geometry" />
        </mxCell>
        <mxCell id="zlBBdxe0bt9fsabpmSAy-308" value="AIN2" style="text;html=1;strokeColor=none;fillColor=none;align=left;verticalAlign=middle;whiteSpace=wrap;rounded=0;rotation=0;fontSize=8;" parent="1" vertex="1">
          <mxGeometry x="610" y="324" width="50" height="10" as="geometry" />
        </mxCell>
        <mxCell id="zlBBdxe0bt9fsabpmSAy-309" value="AIN1" style="text;html=1;strokeColor=none;fillColor=none;align=left;verticalAlign=middle;whiteSpace=wrap;rounded=0;rotation=0;fontSize=8;" parent="1" vertex="1">
          <mxGeometry x="610" y="334" width="50" height="10" as="geometry" />
        </mxCell>
        <mxCell id="zlBBdxe0bt9fsabpmSAy-310" value="STBY" style="text;html=1;strokeColor=none;fillColor=none;align=left;verticalAlign=middle;whiteSpace=wrap;rounded=0;rotation=0;fontSize=8;" parent="1" vertex="1">
          <mxGeometry x="610" y="344" width="50" height="10" as="geometry" />
        </mxCell>
        <mxCell id="zlBBdxe0bt9fsabpmSAy-311" value="BIN1" style="text;html=1;strokeColor=none;fillColor=none;align=left;verticalAlign=middle;whiteSpace=wrap;rounded=0;rotation=0;fontSize=8;" parent="1" vertex="1">
          <mxGeometry x="610" y="354" width="50" height="10" as="geometry" />
        </mxCell>
        <mxCell id="zlBBdxe0bt9fsabpmSAy-312" value="BIN2" style="text;html=1;strokeColor=none;fillColor=none;align=left;verticalAlign=middle;whiteSpace=wrap;rounded=0;rotation=0;fontSize=8;" parent="1" vertex="1">
          <mxGeometry x="610" y="364" width="50" height="10" as="geometry" />
        </mxCell>
        <mxCell id="zlBBdxe0bt9fsabpmSAy-313" value="PWMB" style="text;html=1;strokeColor=none;fillColor=none;align=left;verticalAlign=middle;whiteSpace=wrap;rounded=0;rotation=0;fontSize=8;" parent="1" vertex="1">
          <mxGeometry x="610" y="374" width="50" height="10" as="geometry" />
        </mxCell>
        <mxCell id="zlBBdxe0bt9fsabpmSAy-314" value="GND" style="text;html=1;strokeColor=none;fillColor=none;align=left;verticalAlign=middle;whiteSpace=wrap;rounded=0;rotation=0;fontSize=8;" parent="1" vertex="1">
          <mxGeometry x="610" y="384" width="50" height="10" as="geometry" />
        </mxCell>
        <mxCell id="zlBBdxe0bt9fsabpmSAy-315" value="VM" style="text;html=1;strokeColor=none;fillColor=none;align=right;verticalAlign=middle;whiteSpace=wrap;rounded=0;rotation=0;fontSize=8;" parent="1" vertex="1">
          <mxGeometry x="680" y="314" width="50" height="10" as="geometry" />
        </mxCell>
        <mxCell id="zlBBdxe0bt9fsabpmSAy-316" value="VCC" style="text;html=1;strokeColor=none;fillColor=none;align=right;verticalAlign=middle;whiteSpace=wrap;rounded=0;rotation=0;fontSize=8;" parent="1" vertex="1">
          <mxGeometry x="680" y="324" width="50" height="10" as="geometry" />
        </mxCell>
        <mxCell id="zlBBdxe0bt9fsabpmSAy-317" value="GND" style="text;html=1;strokeColor=none;fillColor=none;align=right;verticalAlign=middle;whiteSpace=wrap;rounded=0;rotation=0;fontSize=8;" parent="1" vertex="1">
          <mxGeometry x="680" y="334" width="50" height="10" as="geometry" />
        </mxCell>
        <mxCell id="zlBBdxe0bt9fsabpmSAy-318" value="A01" style="text;html=1;strokeColor=none;fillColor=none;align=right;verticalAlign=middle;whiteSpace=wrap;rounded=0;rotation=0;fontSize=8;" parent="1" vertex="1">
          <mxGeometry x="680" y="344" width="50" height="10" as="geometry" />
        </mxCell>
        <mxCell id="zlBBdxe0bt9fsabpmSAy-319" value="A02" style="text;html=1;strokeColor=none;fillColor=none;align=right;verticalAlign=middle;whiteSpace=wrap;rounded=0;rotation=0;fontSize=8;" parent="1" vertex="1">
          <mxGeometry x="680" y="354" width="50" height="10" as="geometry" />
        </mxCell>
        <mxCell id="zlBBdxe0bt9fsabpmSAy-320" value="B01" style="text;html=1;strokeColor=none;fillColor=none;align=right;verticalAlign=middle;whiteSpace=wrap;rounded=0;rotation=0;fontSize=8;" parent="1" vertex="1">
          <mxGeometry x="680" y="364" width="50" height="10" as="geometry" />
        </mxCell>
        <mxCell id="zlBBdxe0bt9fsabpmSAy-321" value="B02" style="text;html=1;strokeColor=none;fillColor=none;align=right;verticalAlign=middle;whiteSpace=wrap;rounded=0;rotation=0;fontSize=8;" parent="1" vertex="1">
          <mxGeometry x="680" y="374" width="50" height="10" as="geometry" />
        </mxCell>
        <mxCell id="zlBBdxe0bt9fsabpmSAy-322" value="GND" style="text;html=1;strokeColor=none;fillColor=none;align=right;verticalAlign=middle;whiteSpace=wrap;rounded=0;rotation=0;fontSize=8;" parent="1" vertex="1">
          <mxGeometry x="680" y="384" width="50" height="10" as="geometry" />
        </mxCell>
        <mxCell id="zlBBdxe0bt9fsabpmSAy-339" value="PWMA" style="text;html=1;strokeColor=none;fillColor=none;align=left;verticalAlign=middle;whiteSpace=wrap;rounded=0;rotation=0;fontSize=8;" parent="1" vertex="1">
          <mxGeometry x="610" y="487" width="50" height="10" as="geometry" />
        </mxCell>
        <mxCell id="zlBBdxe0bt9fsabpmSAy-340" value="AIN2" style="text;html=1;strokeColor=none;fillColor=none;align=left;verticalAlign=middle;whiteSpace=wrap;rounded=0;rotation=0;fontSize=8;" parent="1" vertex="1">
          <mxGeometry x="610" y="497" width="50" height="10" as="geometry" />
        </mxCell>
        <mxCell id="zlBBdxe0bt9fsabpmSAy-341" value="AIN1" style="text;html=1;strokeColor=none;fillColor=none;align=left;verticalAlign=middle;whiteSpace=wrap;rounded=0;rotation=0;fontSize=8;" parent="1" vertex="1">
          <mxGeometry x="610" y="507" width="50" height="10" as="geometry" />
        </mxCell>
        <mxCell id="zlBBdxe0bt9fsabpmSAy-342" value="STBY" style="text;html=1;strokeColor=none;fillColor=none;align=left;verticalAlign=middle;whiteSpace=wrap;rounded=0;rotation=0;fontSize=8;" parent="1" vertex="1">
          <mxGeometry x="610" y="517" width="50" height="10" as="geometry" />
        </mxCell>
        <mxCell id="zlBBdxe0bt9fsabpmSAy-343" value="BIN1" style="text;html=1;strokeColor=none;fillColor=none;align=left;verticalAlign=middle;whiteSpace=wrap;rounded=0;rotation=0;fontSize=8;" parent="1" vertex="1">
          <mxGeometry x="610" y="527" width="50" height="10" as="geometry" />
        </mxCell>
        <mxCell id="zlBBdxe0bt9fsabpmSAy-344" value="BIN2" style="text;html=1;strokeColor=none;fillColor=none;align=left;verticalAlign=middle;whiteSpace=wrap;rounded=0;rotation=0;fontSize=8;" parent="1" vertex="1">
          <mxGeometry x="610" y="537" width="50" height="10" as="geometry" />
        </mxCell>
        <mxCell id="zlBBdxe0bt9fsabpmSAy-345" value="PWMB" style="text;html=1;strokeColor=none;fillColor=none;align=left;verticalAlign=middle;whiteSpace=wrap;rounded=0;rotation=0;fontSize=8;" parent="1" vertex="1">
          <mxGeometry x="610" y="547" width="50" height="10" as="geometry" />
        </mxCell>
        <mxCell id="zlBBdxe0bt9fsabpmSAy-346" value="GND" style="text;html=1;strokeColor=none;fillColor=none;align=left;verticalAlign=middle;whiteSpace=wrap;rounded=0;rotation=0;fontSize=8;" parent="1" vertex="1">
          <mxGeometry x="610" y="557" width="50" height="10" as="geometry" />
        </mxCell>
        <mxCell id="zlBBdxe0bt9fsabpmSAy-356" value="TB6612 1" style="text;html=1;align=center;verticalAlign=middle;resizable=0;points=[];autosize=1;strokeColor=none;fillColor=none;fontSize=8;" parent="1" vertex="1">
          <mxGeometry x="605" y="274" width="50" height="20" as="geometry" />
        </mxCell>
        <mxCell id="zlBBdxe0bt9fsabpmSAy-357" value="TB6612 1" style="text;html=1;align=center;verticalAlign=middle;resizable=0;points=[];autosize=1;strokeColor=none;fillColor=none;fontSize=8;" parent="1" vertex="1">
          <mxGeometry x="605" y="447" width="50" height="20" as="geometry" />
        </mxCell>
        <mxCell id="zlBBdxe0bt9fsabpmSAy-358" value="VM" style="text;html=1;strokeColor=none;fillColor=none;align=right;verticalAlign=middle;whiteSpace=wrap;rounded=0;rotation=0;fontSize=8;" parent="1" vertex="1">
          <mxGeometry x="680" y="487" width="50" height="10" as="geometry" />
        </mxCell>
        <mxCell id="zlBBdxe0bt9fsabpmSAy-359" value="VCC" style="text;html=1;strokeColor=none;fillColor=none;align=right;verticalAlign=middle;whiteSpace=wrap;rounded=0;rotation=0;fontSize=8;" parent="1" vertex="1">
          <mxGeometry x="680" y="497" width="50" height="10" as="geometry" />
        </mxCell>
        <mxCell id="zlBBdxe0bt9fsabpmSAy-360" value="GND" style="text;html=1;strokeColor=none;fillColor=none;align=right;verticalAlign=middle;whiteSpace=wrap;rounded=0;rotation=0;fontSize=8;" parent="1" vertex="1">
          <mxGeometry x="680" y="507" width="50" height="10" as="geometry" />
        </mxCell>
        <mxCell id="zlBBdxe0bt9fsabpmSAy-361" value="A01" style="text;html=1;strokeColor=none;fillColor=none;align=right;verticalAlign=middle;whiteSpace=wrap;rounded=0;rotation=0;fontSize=8;" parent="1" vertex="1">
          <mxGeometry x="680" y="517" width="50" height="10" as="geometry" />
        </mxCell>
        <mxCell id="zlBBdxe0bt9fsabpmSAy-362" value="A02" style="text;html=1;strokeColor=none;fillColor=none;align=right;verticalAlign=middle;whiteSpace=wrap;rounded=0;rotation=0;fontSize=8;" parent="1" vertex="1">
          <mxGeometry x="680" y="527" width="50" height="10" as="geometry" />
        </mxCell>
        <mxCell id="zlBBdxe0bt9fsabpmSAy-363" value="B01" style="text;html=1;strokeColor=none;fillColor=none;align=right;verticalAlign=middle;whiteSpace=wrap;rounded=0;rotation=0;fontSize=8;" parent="1" vertex="1">
          <mxGeometry x="680" y="537" width="50" height="10" as="geometry" />
        </mxCell>
        <mxCell id="zlBBdxe0bt9fsabpmSAy-364" value="B02" style="text;html=1;strokeColor=none;fillColor=none;align=right;verticalAlign=middle;whiteSpace=wrap;rounded=0;rotation=0;fontSize=8;" parent="1" vertex="1">
          <mxGeometry x="680" y="547" width="50" height="10" as="geometry" />
        </mxCell>
        <mxCell id="zlBBdxe0bt9fsabpmSAy-365" value="GND" style="text;html=1;strokeColor=none;fillColor=none;align=right;verticalAlign=middle;whiteSpace=wrap;rounded=0;rotation=0;fontSize=8;" parent="1" vertex="1">
          <mxGeometry x="680" y="557" width="50" height="10" as="geometry" />
        </mxCell>
        <mxCell id="zlBBdxe0bt9fsabpmSAy-367" value="" style="endArrow=none;html=1;rounded=0;labelBackgroundColor=none;labelBorderColor=none;fontSize=8;fontColor=none;fillColor=#b0e3e6;strokeColor=#000000;entryX=0;entryY=0.5;entryDx=0;entryDy=0;exitX=1;exitY=0.5;exitDx=0;exitDy=0;" parent="1" source="zlBBdxe0bt9fsabpmSAy-150" target="zlBBdxe0bt9fsabpmSAy-307" edge="1">
          <mxGeometry width="50" height="50" relative="1" as="geometry">
            <mxPoint x="320" y="520" as="sourcePoint" />
            <mxPoint x="430" y="490" as="targetPoint" />
            <Array as="points">
              <mxPoint x="320" y="550" />
              <mxPoint x="420" y="550" />
              <mxPoint x="420" y="319" />
            </Array>
          </mxGeometry>
        </mxCell>
        <mxCell id="zlBBdxe0bt9fsabpmSAy-368" value="" style="endArrow=none;html=1;rounded=0;labelBackgroundColor=none;labelBorderColor=none;fontSize=8;fontColor=none;exitX=1;exitY=0.5;exitDx=0;exitDy=0;fillColor=#b0e3e6;strokeColor=#000000;entryX=0;entryY=0.5;entryDx=0;entryDy=0;" parent="1" source="zlBBdxe0bt9fsabpmSAy-151" target="zlBBdxe0bt9fsabpmSAy-308" edge="1">
          <mxGeometry width="50" height="50" relative="1" as="geometry">
            <mxPoint x="330" y="509" as="sourcePoint" />
            <mxPoint x="440" y="500" as="targetPoint" />
            <Array as="points">
              <mxPoint x="310" y="560" />
              <mxPoint x="430" y="560" />
              <mxPoint x="430" y="329" />
            </Array>
          </mxGeometry>
        </mxCell>
        <mxCell id="zlBBdxe0bt9fsabpmSAy-369" value="" style="endArrow=none;html=1;rounded=0;labelBackgroundColor=none;labelBorderColor=none;fontSize=8;fontColor=none;exitX=1;exitY=0.5;exitDx=0;exitDy=0;fillColor=#b0e3e6;strokeColor=#000000;entryX=0;entryY=0.5;entryDx=0;entryDy=0;" parent="1" source="zlBBdxe0bt9fsabpmSAy-152" target="zlBBdxe0bt9fsabpmSAy-309" edge="1">
          <mxGeometry width="50" height="50" relative="1" as="geometry">
            <mxPoint x="340" y="519" as="sourcePoint" />
            <mxPoint x="450" y="510" as="targetPoint" />
            <Array as="points">
              <mxPoint x="300" y="570" />
              <mxPoint x="440" y="570" />
              <mxPoint x="440" y="339" />
            </Array>
          </mxGeometry>
        </mxCell>
        <mxCell id="zlBBdxe0bt9fsabpmSAy-370" value="" style="endArrow=none;html=1;rounded=0;labelBackgroundColor=none;labelBorderColor=none;fontSize=8;fontColor=none;strokeColor=#000000;fillColor=#fad7ac;entryX=0;entryY=0.5;entryDx=0;entryDy=0;exitX=1;exitY=0.5;exitDx=0;exitDy=0;" parent="1" source="zlBBdxe0bt9fsabpmSAy-157" target="zlBBdxe0bt9fsabpmSAy-310" edge="1">
          <mxGeometry width="50" height="50" relative="1" as="geometry">
            <mxPoint x="380" y="440" as="sourcePoint" />
            <mxPoint x="430" y="390" as="targetPoint" />
            <Array as="points">
              <mxPoint x="290" y="580" />
              <mxPoint x="380" y="580" />
              <mxPoint x="380" y="349" />
            </Array>
          </mxGeometry>
        </mxCell>
        <mxCell id="zlBBdxe0bt9fsabpmSAy-371" value="" style="endArrow=none;html=1;rounded=0;labelBackgroundColor=none;labelBorderColor=none;fontSize=8;fontColor=none;strokeColor=#000000;fillColor=#0050ef;entryX=0;entryY=0.5;entryDx=0;entryDy=0;exitX=1;exitY=0.5;exitDx=0;exitDy=0;" parent="1" source="zlBBdxe0bt9fsabpmSAy-158" target="zlBBdxe0bt9fsabpmSAy-311" edge="1">
          <mxGeometry width="50" height="50" relative="1" as="geometry">
            <mxPoint x="260" y="520" as="sourcePoint" />
            <mxPoint x="430" y="440" as="targetPoint" />
            <Array as="points">
              <mxPoint x="280" y="590" />
              <mxPoint x="390" y="590" />
              <mxPoint x="390" y="359" />
            </Array>
          </mxGeometry>
        </mxCell>
        <mxCell id="zlBBdxe0bt9fsabpmSAy-372" value="" style="endArrow=none;html=1;rounded=0;labelBackgroundColor=none;labelBorderColor=none;fontSize=8;fontColor=none;strokeColor=#000000;fillColor=#0050ef;entryX=0;entryY=0.5;entryDx=0;entryDy=0;exitX=1;exitY=0.5;exitDx=0;exitDy=0;" parent="1" source="zlBBdxe0bt9fsabpmSAy-159" target="zlBBdxe0bt9fsabpmSAy-312" edge="1">
          <mxGeometry width="50" height="50" relative="1" as="geometry">
            <mxPoint x="290" y="509" as="sourcePoint" />
            <mxPoint x="540" y="369" as="targetPoint" />
            <Array as="points">
              <mxPoint x="270" y="600" />
              <mxPoint x="400" y="600" />
              <mxPoint x="400" y="369" />
            </Array>
          </mxGeometry>
        </mxCell>
        <mxCell id="zlBBdxe0bt9fsabpmSAy-373" value="" style="endArrow=none;html=1;rounded=0;labelBackgroundColor=none;labelBorderColor=none;fontSize=8;fontColor=none;strokeColor=#000000;fillColor=#0050ef;entryX=0;entryY=0.5;entryDx=0;entryDy=0;exitX=1;exitY=0.5;exitDx=0;exitDy=0;" parent="1" source="zlBBdxe0bt9fsabpmSAy-160" target="zlBBdxe0bt9fsabpmSAy-313" edge="1">
          <mxGeometry width="50" height="50" relative="1" as="geometry">
            <mxPoint x="240" y="530" as="sourcePoint" />
            <mxPoint x="540" y="379" as="targetPoint" />
            <Array as="points">
              <mxPoint x="260" y="610" />
              <mxPoint x="410" y="610" />
              <mxPoint x="410" y="379" />
            </Array>
          </mxGeometry>
        </mxCell>
        <mxCell id="zlBBdxe0bt9fsabpmSAy-238" value="" style="endArrow=none;html=1;rounded=0;fontSize=8;entryX=0;entryY=0.5;entryDx=0;entryDy=0;exitX=0;exitY=0.5;exitDx=0;exitDy=0;strokeColor=#000000;" parent="1" target="zlBBdxe0bt9fsabpmSAy-276" edge="1" source="zlBBdxe0bt9fsabpmSAy-194">
          <mxGeometry width="50" height="50" relative="1" as="geometry">
            <mxPoint x="120" y="494" as="sourcePoint" />
            <mxPoint x="610" y="78" as="targetPoint" />
            <Array as="points">
              <mxPoint x="100" y="492" />
              <mxPoint x="90" y="492" />
              <mxPoint x="90" y="542" />
              <mxPoint x="460" y="542" />
              <mxPoint x="460" y="76" />
            </Array>
          </mxGeometry>
        </mxCell>
        <mxCell id="zlBBdxe0bt9fsabpmSAy-379" value="" style="endArrow=none;html=1;rounded=0;labelBackgroundColor=none;labelBorderColor=none;fontSize=8;fontColor=none;strokeColor=#000000;fillColor=#b0e3e6;entryX=0;entryY=0.5;entryDx=0;entryDy=0;exitX=1;exitY=0.5;exitDx=0;exitDy=0;" parent="1" source="zlBBdxe0bt9fsabpmSAy-165" target="zlBBdxe0bt9fsabpmSAy-339" edge="1">
          <mxGeometry width="50" height="50" relative="1" as="geometry">
            <mxPoint x="250" y="510" as="sourcePoint" />
            <mxPoint x="550" y="480" as="targetPoint" />
            <Array as="points">
              <mxPoint x="250" y="620" />
              <mxPoint x="510" y="620" />
              <mxPoint x="510" y="492" />
            </Array>
          </mxGeometry>
        </mxCell>
        <mxCell id="zlBBdxe0bt9fsabpmSAy-381" value="" style="endArrow=none;html=1;rounded=0;labelBackgroundColor=none;labelBorderColor=none;fontSize=8;fontColor=none;strokeColor=#000000;fillColor=#b0e3e6;entryX=0;entryY=0.5;entryDx=0;entryDy=0;exitX=1;exitY=0.5;exitDx=0;exitDy=0;" parent="1" source="zlBBdxe0bt9fsabpmSAy-166" target="zlBBdxe0bt9fsabpmSAy-340" edge="1">
          <mxGeometry width="50" height="50" relative="1" as="geometry">
            <mxPoint x="550" y="470" as="sourcePoint" />
            <mxPoint x="620" y="477" as="targetPoint" />
            <Array as="points">
              <mxPoint x="240" y="630" />
              <mxPoint x="520" y="630" />
              <mxPoint x="520" y="502" />
            </Array>
          </mxGeometry>
        </mxCell>
        <mxCell id="zlBBdxe0bt9fsabpmSAy-382" value="" style="endArrow=none;html=1;rounded=0;labelBackgroundColor=none;labelBorderColor=none;fontSize=8;fontColor=none;strokeColor=#000000;fillColor=#b0e3e6;entryX=0;entryY=0.5;entryDx=0;entryDy=0;exitX=1;exitY=0.5;exitDx=0;exitDy=0;" parent="1" source="zlBBdxe0bt9fsabpmSAy-167" target="zlBBdxe0bt9fsabpmSAy-341" edge="1">
          <mxGeometry width="50" height="50" relative="1" as="geometry">
            <mxPoint x="560" y="480" as="sourcePoint" />
            <mxPoint x="630" y="487" as="targetPoint" />
            <Array as="points">
              <mxPoint x="230" y="640" />
              <mxPoint x="530" y="640" />
              <mxPoint x="530" y="512" />
            </Array>
          </mxGeometry>
        </mxCell>
        <mxCell id="zlBBdxe0bt9fsabpmSAy-383" value="" style="endArrow=none;html=1;rounded=0;labelBackgroundColor=none;labelBorderColor=none;fontSize=8;fontColor=none;strokeColor=#000000;fillColor=#fad7ac;entryX=0;entryY=0.5;entryDx=0;entryDy=0;exitX=1;exitY=0.5;exitDx=0;exitDy=0;" parent="1" source="zlBBdxe0bt9fsabpmSAy-168" target="zlBBdxe0bt9fsabpmSAy-342" edge="1">
          <mxGeometry width="50" height="50" relative="1" as="geometry">
            <mxPoint x="380" y="550" as="sourcePoint" />
            <mxPoint x="430" y="500" as="targetPoint" />
            <Array as="points">
              <mxPoint x="220" y="650" />
              <mxPoint x="540" y="650" />
              <mxPoint x="540" y="522" />
            </Array>
          </mxGeometry>
        </mxCell>
        <mxCell id="zlBBdxe0bt9fsabpmSAy-384" value="" style="endArrow=none;html=1;rounded=0;labelBackgroundColor=none;labelBorderColor=none;fontSize=8;fontColor=none;strokeColor=#000000;fillColor=#0050ef;entryX=0;entryY=0.5;entryDx=0;entryDy=0;exitX=1;exitY=0.5;exitDx=0;exitDy=0;" parent="1" source="zlBBdxe0bt9fsabpmSAy-169" target="zlBBdxe0bt9fsabpmSAy-343" edge="1">
          <mxGeometry width="50" height="50" relative="1" as="geometry">
            <mxPoint x="440" y="590" as="sourcePoint" />
            <mxPoint x="490" y="540" as="targetPoint" />
            <Array as="points">
              <mxPoint x="210" y="660" />
              <mxPoint x="550" y="660" />
              <mxPoint x="550" y="532" />
            </Array>
          </mxGeometry>
        </mxCell>
        <mxCell id="zlBBdxe0bt9fsabpmSAy-386" value="" style="endArrow=none;html=1;rounded=0;labelBackgroundColor=none;labelBorderColor=none;fontSize=8;fontColor=none;strokeColor=#000000;fillColor=#0050ef;entryX=0;entryY=0.5;entryDx=0;entryDy=0;exitX=1;exitY=0.5;exitDx=0;exitDy=0;" parent="1" source="zlBBdxe0bt9fsabpmSAy-170" target="zlBBdxe0bt9fsabpmSAy-344" edge="1">
          <mxGeometry width="50" height="50" relative="1" as="geometry">
            <mxPoint x="360" y="580" as="sourcePoint" />
            <mxPoint x="520" y="500" as="targetPoint" />
            <Array as="points">
              <mxPoint x="200" y="670" />
              <mxPoint x="560" y="670" />
              <mxPoint x="560" y="542" />
            </Array>
          </mxGeometry>
        </mxCell>
        <mxCell id="zlBBdxe0bt9fsabpmSAy-387" value="" style="endArrow=none;html=1;rounded=0;labelBackgroundColor=none;labelBorderColor=none;fontSize=8;fontColor=none;strokeColor=#000000;fillColor=#0050ef;entryX=0;entryY=0.5;entryDx=0;entryDy=0;exitX=1;exitY=0.5;exitDx=0;exitDy=0;" parent="1" source="zlBBdxe0bt9fsabpmSAy-171" target="zlBBdxe0bt9fsabpmSAy-345" edge="1">
          <mxGeometry width="50" height="50" relative="1" as="geometry">
            <mxPoint x="300" y="590" as="sourcePoint" />
            <mxPoint x="520" y="530" as="targetPoint" />
            <Array as="points">
              <mxPoint x="190" y="680" />
              <mxPoint x="570" y="680" />
              <mxPoint x="570" y="552" />
            </Array>
          </mxGeometry>
        </mxCell>
        <mxCell id="zlBBdxe0bt9fsabpmSAy-405" value="" style="endArrow=none;html=1;rounded=0;labelBackgroundColor=none;labelBorderColor=none;fontSize=8;fontColor=none;strokeColor=#000000;fillColor=#FF0000;exitX=1;exitY=0.5;exitDx=0;exitDy=0;" parent="1" source="zlBBdxe0bt9fsabpmSAy-358" edge="1">
          <mxGeometry width="50" height="50" relative="1" as="geometry">
            <mxPoint x="790" y="510" as="sourcePoint" />
            <mxPoint x="760" y="492" as="targetPoint" />
          </mxGeometry>
        </mxCell>
        <mxCell id="zlBBdxe0bt9fsabpmSAy-406" value="" style="endArrow=none;html=1;rounded=0;labelBackgroundColor=none;labelBorderColor=none;fontSize=8;fontColor=none;strokeColor=#000000;fillColor=#FF0000;" parent="1" edge="1">
          <mxGeometry width="50" height="50" relative="1" as="geometry">
            <mxPoint x="770" y="620" as="sourcePoint" />
            <mxPoint x="770" y="580" as="targetPoint" />
          </mxGeometry>
        </mxCell>
        <mxCell id="zlBBdxe0bt9fsabpmSAy-407" value="" style="endArrow=none;html=1;rounded=0;labelBackgroundColor=none;labelBorderColor=none;fontSize=8;fontColor=none;strokeColor=#000000;fillColor=#FF0000;" parent="1" edge="1">
          <mxGeometry width="50" height="50" relative="1" as="geometry">
            <mxPoint x="780" y="610" as="sourcePoint" />
            <mxPoint x="780" y="590" as="targetPoint" />
          </mxGeometry>
        </mxCell>
        <mxCell id="zlBBdxe0bt9fsabpmSAy-408" value="" style="endArrow=none;html=1;rounded=0;labelBackgroundColor=none;labelBorderColor=none;fontSize=8;fontColor=none;strokeColor=#000000;fillColor=#FF0000;entryX=1;entryY=0.5;entryDx=0;entryDy=0;" parent="1" target="zlBBdxe0bt9fsabpmSAy-317" edge="1">
          <mxGeometry width="50" height="50" relative="1" as="geometry">
            <mxPoint x="780" y="600" as="sourcePoint" />
            <mxPoint x="780" y="370" as="targetPoint" />
            <Array as="points">
              <mxPoint x="790" y="600" />
              <mxPoint x="790" y="339" />
            </Array>
          </mxGeometry>
        </mxCell>
        <mxCell id="zlBBdxe0bt9fsabpmSAy-409" value="" style="endArrow=none;html=1;rounded=0;labelBackgroundColor=none;labelBorderColor=none;fontSize=8;fontColor=none;strokeColor=#000000;fillColor=#FF0000;exitX=1;exitY=0.5;exitDx=0;exitDy=0;" parent="1" source="zlBBdxe0bt9fsabpmSAy-360" edge="1">
          <mxGeometry width="50" height="50" relative="1" as="geometry">
            <mxPoint x="750" y="530" as="sourcePoint" />
            <mxPoint x="790" y="512" as="targetPoint" />
          </mxGeometry>
        </mxCell>
        <mxCell id="zlBBdxe0bt9fsabpmSAy-410" value="" style="endArrow=none;html=1;rounded=0;labelBackgroundColor=none;labelBorderColor=none;fontSize=8;fontColor=none;strokeColor=#000000;fillColor=#b0e3e6;exitX=1;exitY=0.5;exitDx=0;exitDy=0;entryX=0;entryY=0.5;entryDx=0;entryDy=0;" parent="1" source="zlBBdxe0bt9fsabpmSAy-318" target="tHKBDyenzgohp8NIYTpj-111" edge="1">
          <mxGeometry width="50" height="50" relative="1" as="geometry">
            <mxPoint x="740" y="390" as="sourcePoint" />
            <mxPoint x="861" y="155" as="targetPoint" />
            <Array as="points">
              <mxPoint x="800" y="349" />
              <mxPoint x="800" y="175" />
            </Array>
          </mxGeometry>
        </mxCell>
        <mxCell id="zlBBdxe0bt9fsabpmSAy-413" value="" style="endArrow=none;html=1;rounded=0;labelBackgroundColor=none;labelBorderColor=none;fontSize=8;fontColor=none;strokeColor=#000000;fillColor=#b0e3e6;exitX=1;exitY=0.5;exitDx=0;exitDy=0;entryX=1;entryY=0.5;entryDx=0;entryDy=0;" parent="1" source="zlBBdxe0bt9fsabpmSAy-319" target="tHKBDyenzgohp8NIYTpj-111" edge="1">
          <mxGeometry width="50" height="50" relative="1" as="geometry">
            <mxPoint x="725" y="380" as="sourcePoint" />
            <mxPoint x="861" y="185" as="targetPoint" />
            <Array as="points">
              <mxPoint x="810" y="359" />
              <mxPoint x="810" y="220" />
              <mxPoint x="980" y="220" />
              <mxPoint x="980" y="175" />
            </Array>
          </mxGeometry>
        </mxCell>
        <mxCell id="zlBBdxe0bt9fsabpmSAy-414" value="" style="endArrow=none;html=1;rounded=0;labelBackgroundColor=none;labelBorderColor=none;fontSize=8;fontColor=none;strokeColor=#000000;fillColor=#b0e3e6;exitX=1;exitY=0.5;exitDx=0;exitDy=0;entryX=-0.01;entryY=0.531;entryDx=0;entryDy=0;entryPerimeter=0;" parent="1" source="zlBBdxe0bt9fsabpmSAy-361" target="tHKBDyenzgohp8NIYTpj-116" edge="1">
          <mxGeometry width="50" height="50" relative="1" as="geometry">
            <mxPoint x="830" y="480" as="sourcePoint" />
            <mxPoint x="861" y="395" as="targetPoint" />
            <Array as="points">
              <mxPoint x="800" y="522" />
              <mxPoint x="800" y="430" />
            </Array>
          </mxGeometry>
        </mxCell>
        <mxCell id="zlBBdxe0bt9fsabpmSAy-415" value="" style="endArrow=none;html=1;rounded=0;labelBackgroundColor=none;labelBorderColor=none;fontSize=8;fontColor=none;strokeColor=#000000;fillColor=#b0e3e6;exitX=1;exitY=0.5;exitDx=0;exitDy=0;entryX=1;entryY=0.5;entryDx=0;entryDy=0;" parent="1" source="zlBBdxe0bt9fsabpmSAy-362" target="tHKBDyenzgohp8NIYTpj-116" edge="1">
          <mxGeometry width="50" height="50" relative="1" as="geometry">
            <mxPoint x="830" y="480" as="sourcePoint" />
            <mxPoint x="861" y="425" as="targetPoint" />
            <Array as="points">
              <mxPoint x="810" y="532" />
              <mxPoint x="810" y="470" />
              <mxPoint x="980" y="470" />
              <mxPoint x="980" y="428" />
            </Array>
          </mxGeometry>
        </mxCell>
        <mxCell id="zlBBdxe0bt9fsabpmSAy-416" value="" style="endArrow=none;html=1;rounded=0;labelBackgroundColor=none;labelBorderColor=none;fontSize=8;fontColor=none;strokeColor=#000000;fillColor=#0050ef;exitX=1;exitY=0.5;exitDx=0;exitDy=0;entryX=0;entryY=0.5;entryDx=0;entryDy=0;" parent="1" source="zlBBdxe0bt9fsabpmSAy-320" target="tHKBDyenzgohp8NIYTpj-112" edge="1">
          <mxGeometry width="50" height="50" relative="1" as="geometry">
            <mxPoint x="700" y="380" as="sourcePoint" />
            <mxPoint x="861" y="275" as="targetPoint" />
            <Array as="points">
              <mxPoint x="820" y="369" />
              <mxPoint x="820" y="306" />
            </Array>
          </mxGeometry>
        </mxCell>
        <mxCell id="zlBBdxe0bt9fsabpmSAy-417" value="" style="endArrow=none;html=1;rounded=0;labelBackgroundColor=none;labelBorderColor=none;fontSize=8;fontColor=none;strokeColor=#000000;fillColor=#0050ef;exitX=1;exitY=0.5;exitDx=0;exitDy=0;entryX=1;entryY=0.5;entryDx=0;entryDy=0;" parent="1" source="zlBBdxe0bt9fsabpmSAy-321" target="tHKBDyenzgohp8NIYTpj-112" edge="1">
          <mxGeometry width="50" height="50" relative="1" as="geometry">
            <mxPoint x="740" y="379" as="sourcePoint" />
            <mxPoint x="861" y="305" as="targetPoint" />
            <Array as="points">
              <mxPoint x="830" y="379" />
              <mxPoint x="830" y="350" />
              <mxPoint x="980" y="350" />
              <mxPoint x="980" y="306" />
            </Array>
          </mxGeometry>
        </mxCell>
        <mxCell id="zlBBdxe0bt9fsabpmSAy-420" value="" style="endArrow=none;html=1;rounded=0;labelBackgroundColor=none;labelBorderColor=none;fontSize=8;fontColor=none;strokeColor=#000000;fillColor=#FF0000;entryX=1;entryY=0.5;entryDx=0;entryDy=0;exitX=0;exitY=0.5;exitDx=0;exitDy=0;" parent="1" source="zlBBdxe0bt9fsabpmSAy-346" target="zlBBdxe0bt9fsabpmSAy-365" edge="1">
          <mxGeometry width="50" height="50" relative="1" as="geometry">
            <mxPoint x="600" y="565" as="sourcePoint" />
            <mxPoint x="700" y="535" as="targetPoint" />
            <Array as="points">
              <mxPoint x="600" y="562" />
              <mxPoint x="600" y="600" />
              <mxPoint x="740" y="600" />
              <mxPoint x="740" y="562" />
            </Array>
          </mxGeometry>
        </mxCell>
        <mxCell id="zlBBdxe0bt9fsabpmSAy-422" value="" style="endArrow=none;html=1;rounded=0;labelBackgroundColor=none;labelBorderColor=none;fontSize=8;fontColor=none;strokeColor=#000000;fillColor=#FF0000;entryX=1;entryY=0.5;entryDx=0;entryDy=0;exitX=0;exitY=0.5;exitDx=0;exitDy=0;" parent="1" source="zlBBdxe0bt9fsabpmSAy-314" target="zlBBdxe0bt9fsabpmSAy-322" edge="1">
          <mxGeometry width="50" height="50" relative="1" as="geometry">
            <mxPoint x="610" y="393" as="sourcePoint" />
            <mxPoint x="730" y="393" as="targetPoint" />
            <Array as="points">
              <mxPoint x="600" y="389" />
              <mxPoint x="600" y="424" />
              <mxPoint x="740" y="424" />
              <mxPoint x="740" y="389" />
            </Array>
          </mxGeometry>
        </mxCell>
        <mxCell id="zlBBdxe0bt9fsabpmSAy-424" value="" style="endArrow=none;html=1;rounded=0;labelBackgroundColor=none;labelBorderColor=none;fontSize=8;fontColor=none;strokeColor=#000000;fillColor=#FF0000;entryX=0;entryY=0.5;entryDx=0;entryDy=0;exitX=1;exitY=0.5;exitDx=0;exitDy=0;" parent="1" source="zlBBdxe0bt9fsabpmSAy-174" target="zlBBdxe0bt9fsabpmSAy-314" edge="1">
          <mxGeometry width="50" height="50" relative="1" as="geometry">
            <mxPoint x="470" y="550" as="sourcePoint" />
            <mxPoint x="530" y="450" as="targetPoint" />
            <Array as="points">
              <mxPoint x="160" y="530" />
              <mxPoint x="470" y="530" />
              <mxPoint x="470" y="390" />
            </Array>
          </mxGeometry>
        </mxCell>
        <mxCell id="zlBBdxe0bt9fsabpmSAy-425" value="" style="endArrow=none;html=1;rounded=0;labelBackgroundColor=none;labelBorderColor=none;fontSize=8;fontColor=none;strokeColor=#000000;fillColor=#FF0000;entryX=0;entryY=0.5;entryDx=0;entryDy=0;exitX=1;exitY=0.5;exitDx=0;exitDy=0;" parent="1" source="zlBBdxe0bt9fsabpmSAy-174" target="zlBBdxe0bt9fsabpmSAy-346" edge="1">
          <mxGeometry width="50" height="50" relative="1" as="geometry">
            <mxPoint x="460" y="537" as="sourcePoint" />
            <mxPoint x="510" y="450" as="targetPoint" />
            <Array as="points">
              <mxPoint x="160" y="530" />
              <mxPoint x="470" y="530" />
              <mxPoint x="470" y="600" />
              <mxPoint x="600" y="600" />
              <mxPoint x="600" y="570" />
              <mxPoint x="600" y="562" />
            </Array>
          </mxGeometry>
        </mxCell>
        <mxCell id="zlBBdxe0bt9fsabpmSAy-433" value="" style="rounded=0;whiteSpace=wrap;html=1;fontSize=8;fontColor=none;strokeColor=#000000;" parent="1" vertex="1">
          <mxGeometry x="341" y="-304" width="100" height="60" as="geometry" />
        </mxCell>
        <mxCell id="zlBBdxe0bt9fsabpmSAy-434" value="" style="rounded=0;whiteSpace=wrap;html=1;fontSize=8;fontColor=none;strokeColor=#000000;" parent="1" vertex="1">
          <mxGeometry x="610" y="-304" width="100" height="60" as="geometry" />
        </mxCell>
        <mxCell id="zlBBdxe0bt9fsabpmSAy-437" value="" style="rounded=0;whiteSpace=wrap;html=1;fontSize=8;fontColor=none;strokeColor=#000000;" parent="1" vertex="1">
          <mxGeometry x="341" y="-184" width="100" height="60" as="geometry" />
        </mxCell>
        <mxCell id="zlBBdxe0bt9fsabpmSAy-438" value="" style="rounded=0;whiteSpace=wrap;html=1;fontSize=8;fontColor=none;strokeColor=#000000;" parent="1" vertex="1">
          <mxGeometry x="610" y="-184" width="100" height="60" as="geometry" />
        </mxCell>
        <mxCell id="zlBBdxe0bt9fsabpmSAy-439" value="+12V" style="text;html=1;strokeColor=none;fillColor=none;align=center;verticalAlign=middle;whiteSpace=wrap;rounded=0;fontSize=8;fontColor=none;" parent="1" vertex="1">
          <mxGeometry x="726" y="598" width="60" height="30" as="geometry" />
        </mxCell>
        <mxCell id="zlBBdxe0bt9fsabpmSAy-440" value="VCC" style="text;html=1;strokeColor=none;fillColor=none;align=left;verticalAlign=middle;whiteSpace=wrap;rounded=0;rotation=0;fontSize=8;" parent="1" vertex="1">
          <mxGeometry x="610" y="-294" width="50" height="10" as="geometry" />
        </mxCell>
        <mxCell id="zlBBdxe0bt9fsabpmSAy-441" value="A0" style="text;html=1;strokeColor=none;fillColor=none;align=left;verticalAlign=middle;whiteSpace=wrap;rounded=0;rotation=0;fontSize=8;" parent="1" vertex="1">
          <mxGeometry x="610" y="-284" width="50" height="10" as="geometry" />
        </mxCell>
        <mxCell id="zlBBdxe0bt9fsabpmSAy-442" value="D0" style="text;html=1;strokeColor=none;fillColor=none;align=left;verticalAlign=middle;whiteSpace=wrap;rounded=0;rotation=0;fontSize=8;" parent="1" vertex="1">
          <mxGeometry x="610" y="-274" width="50" height="10" as="geometry" />
        </mxCell>
        <mxCell id="zlBBdxe0bt9fsabpmSAy-443" value="GND" style="text;html=1;strokeColor=none;fillColor=none;align=left;verticalAlign=middle;whiteSpace=wrap;rounded=0;rotation=0;fontSize=8;" parent="1" vertex="1">
          <mxGeometry x="610" y="-264" width="50" height="10" as="geometry" />
        </mxCell>
        <mxCell id="zlBBdxe0bt9fsabpmSAy-444" value="VCC" style="text;html=1;strokeColor=none;fillColor=none;align=left;verticalAlign=middle;whiteSpace=wrap;rounded=0;rotation=0;fontSize=8;" parent="1" vertex="1">
          <mxGeometry x="610" y="-174" width="50" height="10" as="geometry" />
        </mxCell>
        <mxCell id="zlBBdxe0bt9fsabpmSAy-445" value="A0" style="text;html=1;strokeColor=none;fillColor=none;align=left;verticalAlign=middle;whiteSpace=wrap;rounded=0;rotation=0;fontSize=8;" parent="1" vertex="1">
          <mxGeometry x="610" y="-164" width="50" height="10" as="geometry" />
        </mxCell>
        <mxCell id="zlBBdxe0bt9fsabpmSAy-446" value="D0" style="text;html=1;strokeColor=none;fillColor=none;align=left;verticalAlign=middle;whiteSpace=wrap;rounded=0;rotation=0;fontSize=8;" parent="1" vertex="1">
          <mxGeometry x="610" y="-154" width="50" height="10" as="geometry" />
        </mxCell>
        <mxCell id="zlBBdxe0bt9fsabpmSAy-447" value="GND" style="text;html=1;strokeColor=none;fillColor=none;align=left;verticalAlign=middle;whiteSpace=wrap;rounded=0;rotation=0;fontSize=8;" parent="1" vertex="1">
          <mxGeometry x="610" y="-144" width="50" height="10" as="geometry" />
        </mxCell>
        <mxCell id="zlBBdxe0bt9fsabpmSAy-448" value="VCC" style="text;html=1;strokeColor=none;fillColor=none;align=right;verticalAlign=middle;whiteSpace=wrap;rounded=0;rotation=0;fontSize=8;" parent="1" vertex="1">
          <mxGeometry x="391" y="-174" width="50" height="10" as="geometry" />
        </mxCell>
        <mxCell id="zlBBdxe0bt9fsabpmSAy-449" value="A0" style="text;html=1;strokeColor=none;fillColor=none;align=right;verticalAlign=middle;whiteSpace=wrap;rounded=0;rotation=0;fontSize=8;" parent="1" vertex="1">
          <mxGeometry x="391" y="-164" width="50" height="10" as="geometry" />
        </mxCell>
        <mxCell id="zlBBdxe0bt9fsabpmSAy-450" value="D0" style="text;html=1;strokeColor=none;fillColor=none;align=right;verticalAlign=middle;whiteSpace=wrap;rounded=0;rotation=0;fontSize=8;" parent="1" vertex="1">
          <mxGeometry x="391" y="-154" width="50" height="10" as="geometry" />
        </mxCell>
        <mxCell id="zlBBdxe0bt9fsabpmSAy-451" value="GND" style="text;html=1;strokeColor=none;fillColor=none;align=right;verticalAlign=middle;whiteSpace=wrap;rounded=0;rotation=0;fontSize=8;" parent="1" vertex="1">
          <mxGeometry x="391" y="-144" width="50" height="10" as="geometry" />
        </mxCell>
        <mxCell id="zlBBdxe0bt9fsabpmSAy-452" value="VCC" style="text;html=1;strokeColor=none;fillColor=none;align=right;verticalAlign=middle;whiteSpace=wrap;rounded=0;rotation=0;fontSize=8;" parent="1" vertex="1">
          <mxGeometry x="391" y="-294" width="50" height="10" as="geometry" />
        </mxCell>
        <mxCell id="zlBBdxe0bt9fsabpmSAy-453" value="A0" style="text;html=1;strokeColor=none;fillColor=none;align=right;verticalAlign=middle;whiteSpace=wrap;rounded=0;rotation=0;fontSize=8;" parent="1" vertex="1">
          <mxGeometry x="391" y="-284" width="50" height="10" as="geometry" />
        </mxCell>
        <mxCell id="zlBBdxe0bt9fsabpmSAy-454" value="D0" style="text;html=1;strokeColor=none;fillColor=none;align=right;verticalAlign=middle;whiteSpace=wrap;rounded=0;rotation=0;fontSize=8;" parent="1" vertex="1">
          <mxGeometry x="391" y="-274" width="50" height="10" as="geometry" />
        </mxCell>
        <mxCell id="zlBBdxe0bt9fsabpmSAy-455" value="GND" style="text;html=1;strokeColor=none;fillColor=none;align=right;verticalAlign=middle;whiteSpace=wrap;rounded=0;rotation=0;fontSize=8;" parent="1" vertex="1">
          <mxGeometry x="391" y="-264" width="50" height="10" as="geometry" />
        </mxCell>
        <mxCell id="zlBBdxe0bt9fsabpmSAy-456" value="HC-SR04 1" style="text;html=1;align=center;verticalAlign=middle;resizable=0;points=[];autosize=1;strokeColor=none;fillColor=none;fontSize=8;" parent="1" vertex="1">
          <mxGeometry x="605" y="10" width="60" height="20" as="geometry" />
        </mxCell>
        <mxCell id="zlBBdxe0bt9fsabpmSAy-457" value="LM393 2" style="text;html=1;align=center;verticalAlign=middle;resizable=0;points=[];autosize=1;strokeColor=none;fillColor=none;fontSize=8;" parent="1" vertex="1">
          <mxGeometry x="341" y="-204" width="50" height="20" as="geometry" />
        </mxCell>
        <mxCell id="zlBBdxe0bt9fsabpmSAy-458" value="LM393 3" style="text;html=1;align=center;verticalAlign=middle;resizable=0;points=[];autosize=1;strokeColor=none;fillColor=none;fontSize=8;" parent="1" vertex="1">
          <mxGeometry x="610" y="-324" width="50" height="20" as="geometry" />
        </mxCell>
        <mxCell id="zlBBdxe0bt9fsabpmSAy-459" value="LM393 4" style="text;html=1;align=center;verticalAlign=middle;resizable=0;points=[];autosize=1;strokeColor=none;fillColor=none;fontSize=8;" parent="1" vertex="1">
          <mxGeometry x="610" y="-204" width="50" height="20" as="geometry" />
        </mxCell>
        <mxCell id="zlBBdxe0bt9fsabpmSAy-461" value="" style="endArrow=none;html=1;rounded=0;labelBackgroundColor=none;labelBorderColor=none;fontSize=8;fontColor=none;strokeColor=#000000;fillColor=#FF0000;exitX=1;exitY=0.5;exitDx=0;exitDy=0;entryX=0;entryY=0.5;entryDx=0;entryDy=0;" parent="1" source="zlBBdxe0bt9fsabpmSAy-452" target="zlBBdxe0bt9fsabpmSAy-440" edge="1">
          <mxGeometry width="50" height="50" relative="1" as="geometry">
            <mxPoint x="480" y="-164" as="sourcePoint" />
            <mxPoint x="530" y="-214" as="targetPoint" />
          </mxGeometry>
        </mxCell>
        <mxCell id="zlBBdxe0bt9fsabpmSAy-464" value="" style="endArrow=none;html=1;rounded=0;labelBackgroundColor=none;labelBorderColor=none;fontSize=8;fontColor=none;strokeColor=#000000;fillColor=#FF0000;exitX=0;exitY=0.5;exitDx=0;exitDy=0;entryX=0;entryY=0.5;entryDx=0;entryDy=0;" parent="1" source="zlBBdxe0bt9fsabpmSAy-251" target="zlBBdxe0bt9fsabpmSAy-443" edge="1">
          <mxGeometry width="50" height="50" relative="1" as="geometry">
            <mxPoint x="310" y="80" as="sourcePoint" />
            <mxPoint x="360" y="30" as="targetPoint" />
            <Array as="points">
              <mxPoint x="70" y="116" />
              <mxPoint x="70" y="-20" />
              <mxPoint x="530" y="-20" />
              <mxPoint x="530" y="-259" />
            </Array>
          </mxGeometry>
        </mxCell>
        <mxCell id="zlBBdxe0bt9fsabpmSAy-465" value="" style="endArrow=none;html=1;rounded=0;labelBackgroundColor=none;labelBorderColor=none;fontSize=8;fontColor=none;strokeColor=#000000;fillColor=#FF0000;exitX=1;exitY=0.75;exitDx=0;exitDy=0;entryX=0;entryY=0.5;entryDx=0;entryDy=0;" parent="1" source="zlBBdxe0bt9fsabpmSAy-437" target="zlBBdxe0bt9fsabpmSAy-447" edge="1">
          <mxGeometry width="50" height="50" relative="1" as="geometry">
            <mxPoint x="620" y="-144" as="sourcePoint" />
            <mxPoint x="670" y="-194" as="targetPoint" />
          </mxGeometry>
        </mxCell>
        <mxCell id="zlBBdxe0bt9fsabpmSAy-467" value="" style="endArrow=none;html=1;rounded=0;labelBackgroundColor=none;labelBorderColor=none;fontSize=8;fontColor=none;strokeColor=#000000;fillColor=#FF0000;exitX=1;exitY=0.5;exitDx=0;exitDy=0;entryX=0;entryY=0.75;entryDx=0;entryDy=0;" parent="1" source="zlBBdxe0bt9fsabpmSAy-455" target="zlBBdxe0bt9fsabpmSAy-434" edge="1">
          <mxGeometry width="50" height="50" relative="1" as="geometry">
            <mxPoint x="451" y="-129" as="sourcePoint" />
            <mxPoint x="620" y="-129" as="targetPoint" />
          </mxGeometry>
        </mxCell>
        <mxCell id="zlBBdxe0bt9fsabpmSAy-468" value="" style="endArrow=none;html=1;rounded=0;labelBackgroundColor=none;labelBorderColor=none;fontSize=8;fontColor=none;strokeColor=#000000;fillColor=#e1d5e7;entryX=1;entryY=0.5;entryDx=0;entryDy=0;exitX=1;exitY=0.5;exitDx=0;exitDy=0;" parent="1" source="zlBBdxe0bt9fsabpmSAy-20" target="zlBBdxe0bt9fsabpmSAy-454" edge="1">
          <mxGeometry width="50" height="50" relative="1" as="geometry">
            <mxPoint x="380" y="180" as="sourcePoint" />
            <mxPoint x="560" y="-80" as="targetPoint" />
            <Array as="points">
              <mxPoint x="540" y="175" />
              <mxPoint x="540" y="-270" />
            </Array>
          </mxGeometry>
        </mxCell>
        <mxCell id="zlBBdxe0bt9fsabpmSAy-469" value="" style="endArrow=none;html=1;rounded=0;labelBackgroundColor=none;labelBorderColor=none;fontSize=8;fontColor=none;strokeColor=#000000;fillColor=#b1ddf0;exitX=1;exitY=0.5;exitDx=0;exitDy=0;entryX=1;entryY=0.5;entryDx=0;entryDy=0;" parent="1" source="zlBBdxe0bt9fsabpmSAy-450" target="zlBBdxe0bt9fsabpmSAy-21" edge="1">
          <mxGeometry width="50" height="50" relative="1" as="geometry">
            <mxPoint x="461" y="-35" as="sourcePoint" />
            <mxPoint x="550" y="-20" as="targetPoint" />
            <Array as="points">
              <mxPoint x="550" y="-149" />
              <mxPoint x="550" y="185" />
            </Array>
          </mxGeometry>
        </mxCell>
        <mxCell id="zlBBdxe0bt9fsabpmSAy-470" value="" style="endArrow=none;html=1;rounded=0;labelBackgroundColor=none;labelBorderColor=none;fontSize=8;fontColor=none;fillColor=#f5f5f5;gradientColor=#b3b3b3;strokeColor=#000000;entryX=0;entryY=0.5;entryDx=0;entryDy=0;exitX=1;exitY=0.5;exitDx=0;exitDy=0;" parent="1" source="zlBBdxe0bt9fsabpmSAy-22" target="zlBBdxe0bt9fsabpmSAy-442" edge="1">
          <mxGeometry width="50" height="50" relative="1" as="geometry">
            <mxPoint x="560" y="-10" as="sourcePoint" />
            <mxPoint x="570" y="-120" as="targetPoint" />
            <Array as="points">
              <mxPoint x="560" y="195" />
              <mxPoint x="560" y="-269" />
            </Array>
          </mxGeometry>
        </mxCell>
        <mxCell id="zlBBdxe0bt9fsabpmSAy-471" value="" style="endArrow=none;html=1;rounded=0;labelBackgroundColor=none;labelBorderColor=none;fontSize=8;fontColor=none;strokeColor=#000000;fillColor=#0050ef;entryX=0;entryY=0.5;entryDx=0;entryDy=0;exitX=1;exitY=0.5;exitDx=0;exitDy=0;" parent="1" source="zlBBdxe0bt9fsabpmSAy-23" target="zlBBdxe0bt9fsabpmSAy-446" edge="1">
          <mxGeometry width="50" height="50" relative="1" as="geometry">
            <mxPoint x="570" y="20" as="sourcePoint" />
            <mxPoint x="600" y="-70" as="targetPoint" />
            <Array as="points">
              <mxPoint x="570" y="205" />
              <mxPoint x="570" y="-149" />
            </Array>
          </mxGeometry>
        </mxCell>
        <mxCell id="zlBBdxe0bt9fsabpmSAy-460" value="" style="endArrow=none;html=1;rounded=0;labelBackgroundColor=none;labelBorderColor=none;fontSize=8;fontColor=none;strokeColor=#000000;fillColor=#e51400;entryX=0;entryY=0.5;entryDx=0;entryDy=0;exitX=0;exitY=0.5;exitDx=0;exitDy=0;" parent="1" source="zlBBdxe0bt9fsabpmSAy-250" target="zlBBdxe0bt9fsabpmSAy-440" edge="1">
          <mxGeometry width="50" height="50" relative="1" as="geometry">
            <mxPoint x="526" y="-20" as="sourcePoint" />
            <mxPoint x="526" y="-230" as="targetPoint" />
            <Array as="points">
              <mxPoint x="80" y="106" />
              <mxPoint x="80" y="-30" />
              <mxPoint x="520" y="-30" />
              <mxPoint x="520" y="-289" />
            </Array>
          </mxGeometry>
        </mxCell>
        <mxCell id="zlBBdxe0bt9fsabpmSAy-463" value="" style="endArrow=none;html=1;rounded=0;labelBackgroundColor=none;labelBorderColor=none;fontSize=8;fontColor=none;strokeColor=#000000;fillColor=#FF0000;exitX=1;exitY=0.25;exitDx=0;exitDy=0;entryX=0;entryY=0.5;entryDx=0;entryDy=0;" parent="1" source="zlBBdxe0bt9fsabpmSAy-437" target="zlBBdxe0bt9fsabpmSAy-444" edge="1">
          <mxGeometry width="50" height="50" relative="1" as="geometry">
            <mxPoint x="441" y="-194.2" as="sourcePoint" />
            <mxPoint x="610" y="-194.2" as="targetPoint" />
          </mxGeometry>
        </mxCell>
        <mxCell id="zlBBdxe0bt9fsabpmSAy-196" value="" style="endArrow=none;html=1;rounded=0;fontSize=8;exitX=1;exitY=0.5;exitDx=0;exitDy=0;entryX=0;entryY=0.5;entryDx=0;entryDy=0;fillColor=#f8cecc;strokeColor=#000000;fontColor=none;labelBackgroundColor=none;labelBorderColor=none;noLabel=1;" parent="1" source="zlBBdxe0bt9fsabpmSAy-177" target="zlBBdxe0bt9fsabpmSAy-273" edge="1">
          <mxGeometry width="50" height="50" relative="1" as="geometry">
            <mxPoint x="329.88" y="407" as="sourcePoint" />
            <mxPoint x="520" y="37.6" as="targetPoint" />
            <Array as="points">
              <mxPoint x="420" y="492" />
              <mxPoint x="480" y="492" />
              <mxPoint x="480" y="46" />
            </Array>
          </mxGeometry>
        </mxCell>
        <mxCell id="zlBBdxe0bt9fsabpmSAy-285" value="" style="endArrow=none;html=1;rounded=0;fontSize=8;strokeColor=#000000;exitX=0;exitY=0.5;exitDx=0;exitDy=0;" parent="1" source="zlBBdxe0bt9fsabpmSAy-281" edge="1">
          <mxGeometry width="50" height="50" relative="1" as="geometry">
            <mxPoint x="530" y="133" as="sourcePoint" />
            <mxPoint x="480" y="134" as="targetPoint" />
          </mxGeometry>
        </mxCell>
        <mxCell id="zlBBdxe0bt9fsabpmSAy-293" value="" style="endArrow=none;html=1;rounded=0;fontSize=8;strokeColor=#000000;exitX=0;exitY=0.5;exitDx=0;exitDy=0;" parent="1" source="zlBBdxe0bt9fsabpmSAy-289" edge="1">
          <mxGeometry width="50" height="50" relative="1" as="geometry">
            <mxPoint x="530" y="221" as="sourcePoint" />
            <mxPoint x="480" y="222" as="targetPoint" />
          </mxGeometry>
        </mxCell>
        <mxCell id="zlBBdxe0bt9fsabpmSAy-402" value="" style="endArrow=none;html=1;rounded=0;labelBackgroundColor=none;labelBorderColor=none;fontSize=8;fontColor=none;strokeColor=#000000;fillColor=#e51400;entryX=1;entryY=0.5;entryDx=0;entryDy=0;" parent="1" target="zlBBdxe0bt9fsabpmSAy-315" edge="1">
          <mxGeometry width="50" height="50" relative="1" as="geometry">
            <mxPoint x="770" y="600" as="sourcePoint" />
            <mxPoint x="800" y="310" as="targetPoint" />
            <Array as="points">
              <mxPoint x="760" y="600" />
              <mxPoint x="760" y="319" />
            </Array>
          </mxGeometry>
        </mxCell>
        <mxCell id="zlBBdxe0bt9fsabpmSAy-366" value="" style="endArrow=none;html=1;rounded=0;labelBackgroundColor=none;labelBorderColor=none;fontSize=8;fontColor=none;strokeColor=#000000;fillColor=#FF0000;entryX=1;entryY=0.5;entryDx=0;entryDy=0;" parent="1" target="zlBBdxe0bt9fsabpmSAy-316" edge="1">
          <mxGeometry width="50" height="50" relative="1" as="geometry">
            <mxPoint x="750" y="450" as="sourcePoint" />
            <mxPoint x="770" y="350" as="targetPoint" />
            <Array as="points">
              <mxPoint x="750" y="329" />
            </Array>
          </mxGeometry>
        </mxCell>
        <mxCell id="zlBBdxe0bt9fsabpmSAy-305" value="" style="endArrow=none;html=1;rounded=0;labelBackgroundColor=none;labelBorderColor=none;fontSize=8;fontColor=none;strokeColor=#000000;fillColor=#FF0000;entryX=1;entryY=0.5;entryDx=0;entryDy=0;fontStyle=4;exitX=1;exitY=0.5;exitDx=0;exitDy=0;" parent="1" source="zlBBdxe0bt9fsabpmSAy-149" target="zlBBdxe0bt9fsabpmSAy-359" edge="1">
          <mxGeometry width="50" height="50" relative="1" as="geometry">
            <mxPoint x="340" y="510" as="sourcePoint" />
            <mxPoint x="650" y="478" as="targetPoint" />
            <Array as="points">
              <mxPoint x="330" y="521" />
              <mxPoint x="500" y="521" />
              <mxPoint x="500" y="440" />
              <mxPoint x="750" y="440" />
              <mxPoint x="750" y="502" />
            </Array>
          </mxGeometry>
        </mxCell>
        <mxCell id="tHKBDyenzgohp8NIYTpj-2" value="" style="rounded=0;whiteSpace=wrap;html=1;" vertex="1" parent="1">
          <mxGeometry x="197.5" y="-170" width="27.5" height="60" as="geometry" />
        </mxCell>
        <mxCell id="tHKBDyenzgohp8NIYTpj-4" value="JP1" style="text;html=1;strokeColor=none;fillColor=none;align=left;verticalAlign=middle;whiteSpace=wrap;rounded=0;rotation=0;fontSize=8;" vertex="1" parent="1">
          <mxGeometry x="179" y="-144" width="50" height="10" as="geometry" />
        </mxCell>
        <mxCell id="tHKBDyenzgohp8NIYTpj-5" value="1" style="text;html=1;strokeColor=none;fillColor=none;align=center;verticalAlign=middle;whiteSpace=wrap;rounded=0;rotation=0;fontSize=8;" vertex="1" parent="1">
          <mxGeometry x="201.5" y="-160" width="22.5" height="10" as="geometry" />
        </mxCell>
        <mxCell id="tHKBDyenzgohp8NIYTpj-6" value="2" style="text;html=1;strokeColor=none;fillColor=none;align=center;verticalAlign=middle;whiteSpace=wrap;rounded=0;rotation=0;fontSize=8;" vertex="1" parent="1">
          <mxGeometry x="201.5" y="-150" width="22.5" height="10" as="geometry" />
        </mxCell>
        <mxCell id="tHKBDyenzgohp8NIYTpj-7" value="3" style="text;html=1;strokeColor=none;fillColor=none;align=center;verticalAlign=middle;whiteSpace=wrap;rounded=0;rotation=0;fontSize=8;" vertex="1" parent="1">
          <mxGeometry x="201.5" y="-140" width="22.5" height="10" as="geometry" />
        </mxCell>
        <mxCell id="tHKBDyenzgohp8NIYTpj-8" value="4" style="text;html=1;strokeColor=none;fillColor=none;align=center;verticalAlign=middle;whiteSpace=wrap;rounded=0;rotation=0;fontSize=8;" vertex="1" parent="1">
          <mxGeometry x="201.5" y="-130" width="22.5" height="10" as="geometry" />
        </mxCell>
        <mxCell id="tHKBDyenzgohp8NIYTpj-11" value="" style="ellipse;whiteSpace=wrap;html=1;aspect=fixed;" vertex="1" parent="1">
          <mxGeometry x="150" y="-95" width="10" height="10" as="geometry" />
        </mxCell>
        <mxCell id="tHKBDyenzgohp8NIYTpj-12" value="" style="ellipse;whiteSpace=wrap;html=1;aspect=fixed;" vertex="1" parent="1">
          <mxGeometry x="150" y="-79" width="10" height="10" as="geometry" />
        </mxCell>
        <mxCell id="tHKBDyenzgohp8NIYTpj-13" value="" style="endArrow=none;html=1;rounded=0;" edge="1" parent="1">
          <mxGeometry width="50" height="50" relative="1" as="geometry">
            <mxPoint x="160" y="-95" as="sourcePoint" />
            <mxPoint x="150" y="-85" as="targetPoint" />
          </mxGeometry>
        </mxCell>
        <mxCell id="tHKBDyenzgohp8NIYTpj-15" value="" style="endArrow=none;html=1;rounded=0;" edge="1" parent="1">
          <mxGeometry width="50" height="50" relative="1" as="geometry">
            <mxPoint x="160" y="-79" as="sourcePoint" />
            <mxPoint x="150" y="-69" as="targetPoint" />
          </mxGeometry>
        </mxCell>
        <mxCell id="tHKBDyenzgohp8NIYTpj-18" value="" style="endArrow=none;html=1;rounded=0;labelBackgroundColor=none;labelBorderColor=none;fontSize=8;fontColor=none;strokeColor=#000000;fillColor=#FF0000;" edge="1" parent="1">
          <mxGeometry width="50" height="50" relative="1" as="geometry">
            <mxPoint x="777" y="620" as="sourcePoint" />
            <mxPoint x="777" y="580" as="targetPoint" />
          </mxGeometry>
        </mxCell>
        <mxCell id="tHKBDyenzgohp8NIYTpj-19" value="" style="endArrow=none;html=1;rounded=0;labelBackgroundColor=none;labelBorderColor=none;fontSize=8;fontColor=none;strokeColor=#000000;fillColor=#FF0000;" edge="1" parent="1">
          <mxGeometry width="50" height="50" relative="1" as="geometry">
            <mxPoint x="773" y="610" as="sourcePoint" />
            <mxPoint x="773" y="590" as="targetPoint" />
          </mxGeometry>
        </mxCell>
        <mxCell id="tHKBDyenzgohp8NIYTpj-30" value="" style="ellipse;whiteSpace=wrap;html=1;fillColor=#000000;" vertex="1" parent="1">
          <mxGeometry x="475" y="217" width="10" height="10" as="geometry" />
        </mxCell>
        <mxCell id="tHKBDyenzgohp8NIYTpj-32" value="" style="ellipse;whiteSpace=wrap;html=1;fillColor=#000000;" vertex="1" parent="1">
          <mxGeometry x="475" y="129" width="10" height="10" as="geometry" />
        </mxCell>
        <mxCell id="tHKBDyenzgohp8NIYTpj-34" value="" style="ellipse;whiteSpace=wrap;html=1;fillColor=#000000;" vertex="1" parent="1">
          <mxGeometry x="455" y="247" width="10" height="10" as="geometry" />
        </mxCell>
        <mxCell id="tHKBDyenzgohp8NIYTpj-35" value="" style="ellipse;whiteSpace=wrap;html=1;fillColor=#000000;" vertex="1" parent="1">
          <mxGeometry x="595" y="384" width="10" height="10" as="geometry" />
        </mxCell>
        <mxCell id="tHKBDyenzgohp8NIYTpj-36" value="" style="ellipse;whiteSpace=wrap;html=1;fillColor=#000000;" vertex="1" parent="1">
          <mxGeometry x="595" y="595" width="10" height="10" as="geometry" />
        </mxCell>
        <mxCell id="tHKBDyenzgohp8NIYTpj-38" value="" style="ellipse;whiteSpace=wrap;html=1;fillColor=#000000;" vertex="1" parent="1">
          <mxGeometry x="515" y="-294" width="10" height="10" as="geometry" />
        </mxCell>
        <mxCell id="tHKBDyenzgohp8NIYTpj-39" value="" style="ellipse;whiteSpace=wrap;html=1;fillColor=#000000;" vertex="1" parent="1">
          <mxGeometry x="525" y="-264" width="10" height="10" as="geometry" />
        </mxCell>
        <mxCell id="tHKBDyenzgohp8NIYTpj-40" value="" style="ellipse;whiteSpace=wrap;html=1;fillColor=#000000;" vertex="1" parent="1">
          <mxGeometry x="515" y="-174" width="10" height="10" as="geometry" />
        </mxCell>
        <mxCell id="tHKBDyenzgohp8NIYTpj-41" value="" style="ellipse;whiteSpace=wrap;html=1;fillColor=#000000;" vertex="1" parent="1">
          <mxGeometry x="525" y="-144" width="10" height="10" as="geometry" />
        </mxCell>
        <mxCell id="tHKBDyenzgohp8NIYTpj-42" value="" style="ellipse;whiteSpace=wrap;html=1;fillColor=#000000;" vertex="1" parent="1">
          <mxGeometry x="455" y="159" width="10" height="10" as="geometry" />
        </mxCell>
        <mxCell id="tHKBDyenzgohp8NIYTpj-43" value="" style="ellipse;whiteSpace=wrap;html=1;fillColor=#000000;" vertex="1" parent="1">
          <mxGeometry x="745" y="435" width="10" height="10" as="geometry" />
        </mxCell>
        <mxCell id="tHKBDyenzgohp8NIYTpj-44" value="" style="ellipse;whiteSpace=wrap;html=1;fillColor=#000000;" vertex="1" parent="1">
          <mxGeometry x="755" y="487" width="10" height="10" as="geometry" />
        </mxCell>
        <mxCell id="tHKBDyenzgohp8NIYTpj-45" value="" style="endArrow=none;html=1;rounded=0;strokeColor=#000000;" edge="1" parent="1">
          <mxGeometry width="50" height="50" relative="1" as="geometry">
            <mxPoint x="30" y="170" as="sourcePoint" />
            <mxPoint x="30" y="170" as="targetPoint" />
          </mxGeometry>
        </mxCell>
        <mxCell id="tHKBDyenzgohp8NIYTpj-47" value="" style="ellipse;whiteSpace=wrap;html=1;fillColor=#000000;" vertex="1" parent="1">
          <mxGeometry x="785" y="507" width="10" height="10" as="geometry" />
        </mxCell>
        <mxCell id="tHKBDyenzgohp8NIYTpj-55" value="" style="ellipse;whiteSpace=wrap;html=1;fillColor=#000000;" vertex="1" parent="1">
          <mxGeometry x="465" y="526" width="10" height="10" as="geometry" />
        </mxCell>
        <mxCell id="tHKBDyenzgohp8NIYTpj-70" value="" style="ellipse;whiteSpace=wrap;html=1;fillColor=#FFFFFF;" vertex="1" parent="1">
          <mxGeometry x="852" y="140" width="79" height="70" as="geometry" />
        </mxCell>
        <mxCell id="tHKBDyenzgohp8NIYTpj-71" value="" style="ellipse;whiteSpace=wrap;html=1;fillColor=#FFFFFF;" vertex="1" parent="1">
          <mxGeometry x="863.75" y="150" width="55.5" height="50" as="geometry" />
        </mxCell>
        <mxCell id="tHKBDyenzgohp8NIYTpj-72" value="М" style="text;html=1;strokeColor=none;fillColor=none;align=center;verticalAlign=middle;whiteSpace=wrap;rounded=0;strokeWidth=1;fontSize=25;" vertex="1" parent="1">
          <mxGeometry x="861.25" y="159" width="60" height="30" as="geometry" />
        </mxCell>
        <mxCell id="tHKBDyenzgohp8NIYTpj-73" value="24" style="text;html=1;strokeColor=none;fillColor=none;align=left;verticalAlign=middle;whiteSpace=wrap;rounded=0;rotation=0;fontSize=8;" vertex="1" parent="1">
          <mxGeometry x="120" y="331" width="50" height="10" as="geometry" />
        </mxCell>
        <mxCell id="tHKBDyenzgohp8NIYTpj-74" value="26" style="text;html=1;strokeColor=none;fillColor=none;align=left;verticalAlign=middle;whiteSpace=wrap;rounded=0;rotation=0;fontSize=8;" vertex="1" parent="1">
          <mxGeometry x="120" y="341" width="50" height="11" as="geometry" />
        </mxCell>
        <mxCell id="tHKBDyenzgohp8NIYTpj-75" value="28" style="text;html=1;strokeColor=none;fillColor=none;align=left;verticalAlign=middle;whiteSpace=wrap;rounded=0;rotation=0;fontSize=8;" vertex="1" parent="1">
          <mxGeometry x="120" y="352" width="50" height="10" as="geometry" />
        </mxCell>
        <mxCell id="tHKBDyenzgohp8NIYTpj-76" value="30" style="text;html=1;strokeColor=none;fillColor=none;align=left;verticalAlign=middle;whiteSpace=wrap;rounded=0;rotation=0;fontSize=8;" vertex="1" parent="1">
          <mxGeometry x="120" y="362" width="50" height="10" as="geometry" />
        </mxCell>
        <mxCell id="tHKBDyenzgohp8NIYTpj-77" value="32" style="text;html=1;strokeColor=none;fillColor=none;align=left;verticalAlign=middle;whiteSpace=wrap;rounded=0;rotation=0;fontSize=8;" vertex="1" parent="1">
          <mxGeometry x="120" y="372" width="50" height="10" as="geometry" />
        </mxCell>
        <mxCell id="tHKBDyenzgohp8NIYTpj-78" value="34" style="text;html=1;strokeColor=none;fillColor=none;align=left;verticalAlign=middle;whiteSpace=wrap;rounded=0;rotation=0;fontSize=8;" vertex="1" parent="1">
          <mxGeometry x="120" y="382" width="50" height="10" as="geometry" />
        </mxCell>
        <mxCell id="tHKBDyenzgohp8NIYTpj-79" value="36" style="text;html=1;strokeColor=none;fillColor=none;align=left;verticalAlign=middle;whiteSpace=wrap;rounded=0;rotation=0;fontSize=8;" vertex="1" parent="1">
          <mxGeometry x="120" y="392" width="50" height="10" as="geometry" />
        </mxCell>
        <mxCell id="tHKBDyenzgohp8NIYTpj-80" value="38" style="text;html=1;strokeColor=none;fillColor=none;align=left;verticalAlign=middle;whiteSpace=wrap;rounded=0;rotation=0;fontSize=8;" vertex="1" parent="1">
          <mxGeometry x="120" y="402" width="50" height="10" as="geometry" />
        </mxCell>
        <mxCell id="tHKBDyenzgohp8NIYTpj-81" value="40" style="text;html=1;strokeColor=none;fillColor=none;align=left;verticalAlign=middle;whiteSpace=wrap;rounded=0;rotation=0;fontSize=8;" vertex="1" parent="1">
          <mxGeometry x="120" y="412" width="50" height="10" as="geometry" />
        </mxCell>
        <mxCell id="tHKBDyenzgohp8NIYTpj-82" value="42" style="text;html=1;strokeColor=none;fillColor=none;align=left;verticalAlign=middle;whiteSpace=wrap;rounded=0;rotation=0;fontSize=8;" vertex="1" parent="1">
          <mxGeometry x="120" y="422" width="50" height="10" as="geometry" />
        </mxCell>
        <mxCell id="tHKBDyenzgohp8NIYTpj-83" value="44" style="text;html=1;strokeColor=none;fillColor=none;align=left;verticalAlign=middle;whiteSpace=wrap;rounded=0;rotation=0;fontSize=8;" vertex="1" parent="1">
          <mxGeometry x="120" y="433" width="50" height="10" as="geometry" />
        </mxCell>
        <mxCell id="tHKBDyenzgohp8NIYTpj-84" value="46" style="text;html=1;strokeColor=none;fillColor=none;align=left;verticalAlign=middle;whiteSpace=wrap;rounded=0;rotation=0;fontSize=8;" vertex="1" parent="1">
          <mxGeometry x="120" y="443" width="50" height="10" as="geometry" />
        </mxCell>
        <mxCell id="tHKBDyenzgohp8NIYTpj-85" value="48" style="text;html=1;strokeColor=none;fillColor=none;align=left;verticalAlign=middle;whiteSpace=wrap;rounded=0;rotation=0;fontSize=8;" vertex="1" parent="1">
          <mxGeometry x="120" y="453" width="50" height="10" as="geometry" />
        </mxCell>
        <mxCell id="tHKBDyenzgohp8NIYTpj-86" value="50" style="text;html=1;strokeColor=none;fillColor=none;align=left;verticalAlign=middle;whiteSpace=wrap;rounded=0;rotation=0;fontSize=8;" vertex="1" parent="1">
          <mxGeometry x="120" y="463" width="50" height="10" as="geometry" />
        </mxCell>
        <mxCell id="tHKBDyenzgohp8NIYTpj-89" value="" style="endArrow=none;html=1;rounded=0;fontSize=8;entryX=1;entryY=0.5;entryDx=0;entryDy=0;align=left;" edge="1" parent="1">
          <mxGeometry width="50" height="50" relative="1" as="geometry">
            <mxPoint x="120" y="327" as="sourcePoint" />
            <mxPoint x="110" y="327" as="targetPoint" />
          </mxGeometry>
        </mxCell>
        <mxCell id="tHKBDyenzgohp8NIYTpj-90" value="" style="endArrow=none;html=1;rounded=0;fontSize=8;entryX=1;entryY=0.5;entryDx=0;entryDy=0;align=left;" edge="1" parent="1">
          <mxGeometry width="50" height="50" relative="1" as="geometry">
            <mxPoint x="120" y="336.89999999999986" as="sourcePoint" />
            <mxPoint x="110" y="336.89999999999986" as="targetPoint" />
          </mxGeometry>
        </mxCell>
        <mxCell id="tHKBDyenzgohp8NIYTpj-91" value="" style="endArrow=none;html=1;rounded=0;fontSize=8;entryX=1;entryY=0.5;entryDx=0;entryDy=0;align=left;" edge="1" parent="1">
          <mxGeometry width="50" height="50" relative="1" as="geometry">
            <mxPoint x="120" y="347" as="sourcePoint" />
            <mxPoint x="110" y="347" as="targetPoint" />
          </mxGeometry>
        </mxCell>
        <mxCell id="tHKBDyenzgohp8NIYTpj-92" value="" style="endArrow=none;html=1;rounded=0;fontSize=8;entryX=1;entryY=0.5;entryDx=0;entryDy=0;align=left;" edge="1" parent="1">
          <mxGeometry width="50" height="50" relative="1" as="geometry">
            <mxPoint x="120" y="357" as="sourcePoint" />
            <mxPoint x="110" y="357" as="targetPoint" />
          </mxGeometry>
        </mxCell>
        <mxCell id="tHKBDyenzgohp8NIYTpj-93" value="" style="endArrow=none;html=1;rounded=0;fontSize=8;entryX=1;entryY=0.5;entryDx=0;entryDy=0;align=left;" edge="1" parent="1">
          <mxGeometry width="50" height="50" relative="1" as="geometry">
            <mxPoint x="120" y="366.9000000000001" as="sourcePoint" />
            <mxPoint x="110" y="366.9000000000001" as="targetPoint" />
          </mxGeometry>
        </mxCell>
        <mxCell id="tHKBDyenzgohp8NIYTpj-94" value="" style="endArrow=none;html=1;rounded=0;fontSize=8;entryX=1;entryY=0.5;entryDx=0;entryDy=0;align=left;" edge="1" parent="1">
          <mxGeometry width="50" height="50" relative="1" as="geometry">
            <mxPoint x="120" y="377" as="sourcePoint" />
            <mxPoint x="110" y="377" as="targetPoint" />
          </mxGeometry>
        </mxCell>
        <mxCell id="tHKBDyenzgohp8NIYTpj-95" value="" style="endArrow=none;html=1;rounded=0;fontSize=8;entryX=1;entryY=0.5;entryDx=0;entryDy=0;align=left;" edge="1" parent="1">
          <mxGeometry width="50" height="50" relative="1" as="geometry">
            <mxPoint x="120" y="387" as="sourcePoint" />
            <mxPoint x="110" y="387" as="targetPoint" />
          </mxGeometry>
        </mxCell>
        <mxCell id="tHKBDyenzgohp8NIYTpj-96" value="" style="endArrow=none;html=1;rounded=0;fontSize=8;entryX=1;entryY=0.5;entryDx=0;entryDy=0;align=left;" edge="1" parent="1">
          <mxGeometry width="50" height="50" relative="1" as="geometry">
            <mxPoint x="120" y="396.9000000000001" as="sourcePoint" />
            <mxPoint x="110" y="396.9000000000001" as="targetPoint" />
          </mxGeometry>
        </mxCell>
        <mxCell id="tHKBDyenzgohp8NIYTpj-97" value="" style="endArrow=none;html=1;rounded=0;fontSize=8;entryX=1;entryY=0.5;entryDx=0;entryDy=0;align=left;" edge="1" parent="1">
          <mxGeometry width="50" height="50" relative="1" as="geometry">
            <mxPoint x="120" y="407" as="sourcePoint" />
            <mxPoint x="110" y="407" as="targetPoint" />
          </mxGeometry>
        </mxCell>
        <mxCell id="tHKBDyenzgohp8NIYTpj-98" value="" style="endArrow=none;html=1;rounded=0;fontSize=8;entryX=1;entryY=0.5;entryDx=0;entryDy=0;align=left;" edge="1" parent="1">
          <mxGeometry width="50" height="50" relative="1" as="geometry">
            <mxPoint x="120" y="417.89999999999986" as="sourcePoint" />
            <mxPoint x="110" y="417.89999999999986" as="targetPoint" />
          </mxGeometry>
        </mxCell>
        <mxCell id="tHKBDyenzgohp8NIYTpj-99" value="" style="endArrow=none;html=1;rounded=0;fontSize=8;entryX=1;entryY=0.5;entryDx=0;entryDy=0;align=left;" edge="1" parent="1">
          <mxGeometry width="50" height="50" relative="1" as="geometry">
            <mxPoint x="120" y="428" as="sourcePoint" />
            <mxPoint x="110" y="428" as="targetPoint" />
          </mxGeometry>
        </mxCell>
        <mxCell id="tHKBDyenzgohp8NIYTpj-100" value="" style="endArrow=none;html=1;rounded=0;fontSize=8;entryX=1;entryY=0.5;entryDx=0;entryDy=0;align=left;" edge="1" parent="1">
          <mxGeometry width="50" height="50" relative="1" as="geometry">
            <mxPoint x="120" y="438" as="sourcePoint" />
            <mxPoint x="110" y="438" as="targetPoint" />
          </mxGeometry>
        </mxCell>
        <mxCell id="tHKBDyenzgohp8NIYTpj-101" value="" style="endArrow=none;html=1;rounded=0;fontSize=8;entryX=1;entryY=0.5;entryDx=0;entryDy=0;align=left;" edge="1" parent="1">
          <mxGeometry width="50" height="50" relative="1" as="geometry">
            <mxPoint x="120" y="447.9000000000001" as="sourcePoint" />
            <mxPoint x="110" y="447.9000000000001" as="targetPoint" />
          </mxGeometry>
        </mxCell>
        <mxCell id="tHKBDyenzgohp8NIYTpj-102" value="" style="endArrow=none;html=1;rounded=0;fontSize=8;entryX=1;entryY=0.5;entryDx=0;entryDy=0;align=left;" edge="1" parent="1">
          <mxGeometry width="50" height="50" relative="1" as="geometry">
            <mxPoint x="120" y="458" as="sourcePoint" />
            <mxPoint x="110" y="458" as="targetPoint" />
          </mxGeometry>
        </mxCell>
        <mxCell id="tHKBDyenzgohp8NIYTpj-103" value="" style="endArrow=none;html=1;rounded=0;fontSize=8;entryX=1;entryY=0.5;entryDx=0;entryDy=0;align=left;" edge="1" parent="1">
          <mxGeometry width="50" height="50" relative="1" as="geometry">
            <mxPoint x="120" y="468" as="sourcePoint" />
            <mxPoint x="110" y="468" as="targetPoint" />
          </mxGeometry>
        </mxCell>
        <mxCell id="tHKBDyenzgohp8NIYTpj-104" value="" style="endArrow=none;html=1;rounded=0;fontSize=8;entryX=1;entryY=0.5;entryDx=0;entryDy=0;align=left;" edge="1" parent="1">
          <mxGeometry width="50" height="50" relative="1" as="geometry">
            <mxPoint x="120" y="477.9000000000001" as="sourcePoint" />
            <mxPoint x="110" y="477.9000000000001" as="targetPoint" />
          </mxGeometry>
        </mxCell>
        <mxCell id="tHKBDyenzgohp8NIYTpj-105" value="" style="endArrow=none;html=1;rounded=0;fontSize=25;strokeColor=#000000;exitX=1;exitY=0.5;exitDx=0;exitDy=0;entryX=1;entryY=0.5;entryDx=0;entryDy=0;" edge="1" parent="1" source="zlBBdxe0bt9fsabpmSAy-364" target="tHKBDyenzgohp8NIYTpj-120">
          <mxGeometry width="50" height="50" relative="1" as="geometry">
            <mxPoint x="778" y="552" as="sourcePoint" />
            <mxPoint x="960" y="550" as="targetPoint" />
            <Array as="points">
              <mxPoint x="820" y="552" />
              <mxPoint x="820" y="590" />
              <mxPoint x="980" y="590" />
              <mxPoint x="980" y="542" />
            </Array>
          </mxGeometry>
        </mxCell>
        <mxCell id="tHKBDyenzgohp8NIYTpj-106" value="" style="endArrow=none;html=1;rounded=0;fontSize=25;strokeColor=#000000;exitX=1;exitY=0.5;exitDx=0;exitDy=0;entryX=0;entryY=0.5;entryDx=0;entryDy=0;" edge="1" parent="1" source="zlBBdxe0bt9fsabpmSAy-363" target="tHKBDyenzgohp8NIYTpj-120">
          <mxGeometry width="50" height="50" relative="1" as="geometry">
            <mxPoint x="755" y="541.9" as="sourcePoint" />
            <mxPoint x="890" y="542" as="targetPoint" />
          </mxGeometry>
        </mxCell>
        <mxCell id="tHKBDyenzgohp8NIYTpj-112" value="" style="rounded=0;whiteSpace=wrap;html=1;fontSize=25;strokeWidth=1;fillColor=#FFFFFF;" vertex="1" parent="1">
          <mxGeometry x="831.5" y="276" width="120" height="60" as="geometry" />
        </mxCell>
        <mxCell id="tHKBDyenzgohp8NIYTpj-113" value="" style="ellipse;whiteSpace=wrap;html=1;fillColor=#FFFFFF;" vertex="1" parent="1">
          <mxGeometry x="852" y="271" width="79" height="70" as="geometry" />
        </mxCell>
        <mxCell id="tHKBDyenzgohp8NIYTpj-114" value="" style="ellipse;whiteSpace=wrap;html=1;fillColor=#FFFFFF;" vertex="1" parent="1">
          <mxGeometry x="863.75" y="281" width="55.5" height="50" as="geometry" />
        </mxCell>
        <mxCell id="tHKBDyenzgohp8NIYTpj-115" value="М" style="text;html=1;strokeColor=none;fillColor=none;align=center;verticalAlign=middle;whiteSpace=wrap;rounded=0;strokeWidth=1;fontSize=25;" vertex="1" parent="1">
          <mxGeometry x="861.25" y="290" width="60" height="30" as="geometry" />
        </mxCell>
        <mxCell id="tHKBDyenzgohp8NIYTpj-116" value="" style="rounded=0;whiteSpace=wrap;html=1;fontSize=25;strokeWidth=1;fillColor=#FFFFFF;" vertex="1" parent="1">
          <mxGeometry x="831.5" y="398" width="120" height="60" as="geometry" />
        </mxCell>
        <mxCell id="tHKBDyenzgohp8NIYTpj-117" value="" style="ellipse;whiteSpace=wrap;html=1;fillColor=#FFFFFF;" vertex="1" parent="1">
          <mxGeometry x="852" y="393" width="79" height="70" as="geometry" />
        </mxCell>
        <mxCell id="tHKBDyenzgohp8NIYTpj-118" value="" style="ellipse;whiteSpace=wrap;html=1;fillColor=#FFFFFF;" vertex="1" parent="1">
          <mxGeometry x="863.75" y="403" width="55.5" height="50" as="geometry" />
        </mxCell>
        <mxCell id="tHKBDyenzgohp8NIYTpj-119" value="М" style="text;html=1;strokeColor=none;fillColor=none;align=center;verticalAlign=middle;whiteSpace=wrap;rounded=0;strokeWidth=1;fontSize=25;" vertex="1" parent="1">
          <mxGeometry x="861.25" y="412" width="60" height="30" as="geometry" />
        </mxCell>
        <mxCell id="tHKBDyenzgohp8NIYTpj-120" value="" style="rounded=0;whiteSpace=wrap;html=1;fontSize=25;strokeWidth=1;fillColor=#FFFFFF;" vertex="1" parent="1">
          <mxGeometry x="831.25" y="512" width="120" height="60" as="geometry" />
        </mxCell>
        <mxCell id="tHKBDyenzgohp8NIYTpj-121" value="" style="ellipse;whiteSpace=wrap;html=1;fillColor=#FFFFFF;" vertex="1" parent="1">
          <mxGeometry x="851.75" y="507" width="79" height="70" as="geometry" />
        </mxCell>
        <mxCell id="tHKBDyenzgohp8NIYTpj-122" value="" style="ellipse;whiteSpace=wrap;html=1;fillColor=#FFFFFF;" vertex="1" parent="1">
          <mxGeometry x="863.5" y="517" width="55.5" height="50" as="geometry" />
        </mxCell>
        <mxCell id="tHKBDyenzgohp8NIYTpj-123" value="М" style="text;html=1;strokeColor=none;fillColor=none;align=center;verticalAlign=middle;whiteSpace=wrap;rounded=0;strokeWidth=1;fontSize=25;" vertex="1" parent="1">
          <mxGeometry x="861" y="526" width="60" height="30" as="geometry" />
        </mxCell>
      </root>
    </mxGraphModel>
  </diagram>
</mxfile>
